<svg xmlns="http://www.w3.org/2000/svg" width="1919" height="806" viewBox="0 0 1919 806"><g id="Layer_1" data-name="Layer 1"><path d="M-114,466.3l824.2,95.2c199.4,23.1,401.9,34.4,599.3,69.5-211.6-10.5-416.6,20.1-620.3,74.8-279.8,75.1-655.8-23.6-886,187.7" fill="#ede6f4"/><path d="M-498.8,788.6l364-418.3C-78,356-8.2,361.6,50,360.9c72.8-.9,145.6,2.2,218.2,6.7,143.1,8.9,285.8,23.9,429.2,27.6,152.7,4,307.8-5.9,455.3-47.8,74.6-21.2,147-50.7,213.6-90.5s118.3-101.1,186.5-140.5c72.2-41.7,152.4-68.6,233.1-88.5,77.4-19.1,166.1-19,236.4-57.8-7.8,145.9-6.5,293.3-9.6,439.5-.5,22.2-80.7,45.7-96.1,51.4-46.4,17.1-91.4,40.1-137.5,59.5-100.5,42.3-204.7,76.6-311.8,97.8-101.6,20.1-206,28.1-309.4,20.2S960,608.3,856.3,614.3c-143.1,8.4-285.1,29.2-427.3,46.1C289.6,677,146,676.6,8.6,706.9c-94.3,20.7-186.7,58.5-259.2,122.2" fill="#523c65"/></g></svg>