<svg xmlns="http://www.w3.org/2000/svg" width="1920" height="573" viewBox="0 0 1920 573"><g id="Layer_1" data-name="Layer 1"><path d="M-14.5-544.5-128.2,14.4C410.5,253,1060.5-3,1584.5,334L1182.9-385.1Z" fill="#ede6f4"/><path d="M2020.5,674c22.2-38.3-27.8-80.8-54.5-100.8-130-97.4-270.5-179.4-412.4-258-139.7-77.4-279.7-152.5-433.6-198.3C852.6,37.4,586.1,53.7,311.8,67.3,144.7,75.5-31.5,65.3-174.3-22L-81-585,1833.6-741.6c66.3,237.1,132.8,474.6,223.6,703.4,27.1,68,56.9,139,48.8,211.8-4.4,40.3-20.3,78.4-30.5,117.6s-14.7,82.6,3,119.1,64,61.2,100.6,43.7c3.8,20.5-8.7,42.8-28.1,50.3" fill="#523c65"/></g></svg>