<svg xmlns="http://www.w3.org/2000/svg" width="1920" height="643" viewBox="0 0 1920 643"><path fill="#ede6f4" d="M346-1157c-19.2 100.9 93.9 372.1 93.7 474.7-.1 118.7-61.8 235.7-160.2 304C164.4-298.4-10-264.4-42.8-129.4-70-17.9 22.8 83.4 104.3 165.2s165.1 196.2 118.2 301.1C170.6 582.3-.8 592.3-79.1 693L-300 587.8-150-1157z"/><path fill="#523c65" d="M-193.3 3151c178.6-113.5 423.6-130.1 552.4-297.9 140.9-183.6 69.2-445.9 102.9-674.8 3.8-26.4 8.9-53.8 18.8-78.6 17.9-44.8 31.5-85.5 38.1-133.5 5.1-36.6 7.2-73.6 4.9-110.5-3.8-59.9-20.1-118.6-51.1-170.3-57.7-96.6-156.3-158.3-251.8-212.7S23.2 1369.3-52.6 1288.8q-9-9.6-17.4-19.8c-91.6-13.4 24.9-266.2-22.9-345.4s-54.8-187.9 1.6-261.3c78.2-102 249.6-112.2 301.5-229.8 47-106.3-36.6-222.3-118.1-305.1S-82.2-58.1-55.1-171c32.9-136.9 207.2-171.3 322.4-252.2 98.4-69.2 160-187.8 160.2-308.1.1-104-69.6-378.5-50.4-480.7 34.9-186.6 257-218.2 441.9-261 384.2-88.8 770.2-78 1164-58l-63.5-396.5-1920 4-348 4732"/></svg>