<svg xmlns="http://www.w3.org/2000/svg" width="1920" height="1746" viewBox="0 0 1920 1746"><path fill="#523c65" d="M-193.3 1827c178.6-113.5 423.6-130.1 552.4-297.9C500 1345.5 428.3 1083.2 462 854.3c3.8-26.4 8.9-53.8 18.8-78.6 17.9-44.8 31.5-85.5 38.1-133.5 5.1-36.6 7.2-73.6 4.9-110.5-3.8-59.9-20.1-118.6-51.1-170.3-57.7-96.6-156.3-158.3-251.8-212.7S23.2 45.3-52.6-35.2q-9-9.6-17.4-19.8c-91.6-13.4 24.9-266.2-22.9-345.4s-54.8-187.9 1.6-261.3c78.2-102 249.6-112.2 301.5-229.8 47-106.3-36.6-222.3-118.1-305.1S-82.2-1382.1-55.1-1495c32.9-136.9 207.2-171.3 322.4-252.2 98.4-69.2 160-187.8 160.2-308.1.1-104-69.6-378.5-50.4-480.7 34.9-186.6 257-218.2 441.9-261 384.2-88.8 770.2-78 1164-58l-63.5-396.5-1920 4-348 4732"/></svg>