<svg xmlns="http://www.w3.org/2000/svg" width="1920" height="1364" viewBox="0 0 1920 1364"><g id="Layer_1" data-name="Layer 1"><path d="M346,409c-19.2,100.9,93.9,372.1,93.7,474.7-.1,118.7-61.8,235.7-160.2,304C164.4,1267.6-10,1301.6-42.8,1436.6c-27.2,111.5,65.6,212.8,147.1,294.6s165.1,196.2,118.2,301.1c-51.9,116-223.3,126-301.6,226.7L-300,2153.8-150,409Z" fill="#ede6f4"/><path d="M-193.3,4717c178.6-113.5,423.6-130.1,552.4-297.9C500,4235.5,428.3,3973.2,462,3744.3c3.8-26.4,8.9-53.8,18.8-78.6,17.9-44.8,31.5-85.5,38.1-133.5,5.1-36.6,7.2-73.6,4.9-110.5-3.8-59.9-20.1-118.6-51.1-170.3-57.7-96.6-156.3-158.3-251.8-212.7S23.2,2935.3-52.6,2854.8q-9-9.6-17.4-19.8c-91.6-13.4,24.9-266.2-22.9-345.4s-54.8-187.9,1.6-261.3c78.2-102,249.6-112.2,301.5-229.8,47-106.3-36.6-222.3-118.1-305.1S-82.2,1507.9-55.1,1395c32.9-136.9,207.2-171.3,322.4-252.2,98.4-69.2,160-187.8,160.2-308.1.1-104-69.6-378.5-50.4-480.7C412,167.4,632.1,109.8,817,67c384.2-88.8,772.2-52,1166-32l-63.5-396.5-1920,4-348,4732" fill="#523c65"/></g></svg>