<svg xmlns="http://www.w3.org/2000/svg" width="1920" height="546" viewBox="0 0 1920 546"><g id="Layer_1" data-name="Layer 1"><path d="M1957-163.5V661.9l-2503.6-100V397.5c215.6-2.5,434.8,34.5,649,55.2,291.4,28.2,583,53.8,876,42.7q124-4.6,247.8-15.8c76.6-6.9,158.6-9.9,232.6-30.4,41.5-11.4,43.4-26.7,31.2-56.2-10.5-25.4,21.4-46,40-48,52.7-5.8,87.3-15.8,135.7-37.4,22-9.8,44.2-22.6,55.9-43.7,26.2-47.1-29.6-78.1-51.6-111.9C1612.2,63.2,2160.4-6.4,2007-88" fill="#ede6f4"/><path d="M2241.6-159.9,1917.5,721H-2.5S-467.8,423.5-467.8,423.4c47.7-6,101.9,3.7,149.5,7.4,74.8,5.9,149.6,13.2,224.3,20.6,180,17.7,359.9,37.9,540.2,52.1,331.2,26.3,665.3,32.7,996.7,4.4,27.5-2.3,55.9-8.2,77.8-25.1,25.8-19.8,29.4-35.2,25.3-64.8-5-36,40.3-42.4,82-48,35.6-4.8,114.2-32.1,144.3-51.7,81.5-52.9-21-108.3-50.3-153.3C1664.2,76.2,2135.4,4.6,1982-77" fill="#523c65"/></g></svg>