<svg xmlns="http://www.w3.org/2000/svg" width="1920" height="459" viewBox="0 0 1920 459"><g id="Layer_1" data-name="Layer 1"><path d="M1941.6,485.6c7.8-3.7,9.5-16.3,10.5-38.2,1.5-33.3-3.5-66.5-2-99.8,2.2-50.7,5.2-101.3,6.9-152.1l-2362.4-67C-264.9,159.9-68.2,271.1,129.4,292S492.3,331.1,693,307c169.5-20.3,383.4-73.4,558.7-52.1,228.8,28,475.1,93.4,679.3,197.1C1949.2,461.2,1935.1,488.7,1941.6,485.6Z" fill="#ede6f4"/><path d="M-108.1-12C-68.7,59.4,128.6,21.2,261,36c188,21,296.6,76.6,496.8,80.1C938,119.2,1095.9,71,1259.7,42.7c174.7-30.1,388.8-42,568.5-16.3,196.7,28.1,358.2,107,413.4,201.7L2067.2,369.7c-29.2,23.7-61.5,77.7-105,66.4-13.3-3.4-25.1-10.8-36.8-17.9C1725.2,298,1476.2,241.3,1244.9,229.5c-179.6-9.1-360.9,20.7-539.3,40-183.6,19.9-370.7,33.1-553.2-2.7C-2.2,236.5-149.7,178.3-296.2,120.3" fill="#523c65"/></g></svg>