<svg xmlns="http://www.w3.org/2000/svg" width="1919" height="2739" viewBox="0 0 1919 2739"><path fill="#523c65" d="M-368.1 2450C-482.6 2190.2-500 1896.7-472 1614.2c32-323.7-10.5-734 265.5-906.2 232.5-145.1 511.1-1.2 751.4 46.4 279.7 55.5 721.9 90.8 1007.1 89.1 119.2-.7 216-95 247-242 46.5-220.5-191.4-346.6 25-513 153.7-118.2 234-120.8 207.7-351.2-6.4-56.2-23.8-112.8-60.9-155.6C1788.1-628.5 961.3-583.4 722-583.5c-378.7-.2-722-221-722-221L-.5-1480h1920L2195 574.5c-52.5 297.6-66.4 601.3-115.6 899.7-18.3 111.6-53.5 111.5-121.3 182.9-47.8 50.3-65.4 119.7-104.2 176s-90.1 99.1-146.8 133.6c-242.2 147.6-534.5 160.3-806.4 208.8-203.8 36.3-403.3 93-585.9 209.7C150 2490.5-63.9 2682.1-36 2898.5c7.6 58.6 127 128 150.8 225.8 8.8 36.1-.7 74.6-9.6 110.6-8.3 33.9-28.8 64.6-34.4 98.6-10 60.7 19.2 131.3 57.7 177.4 122.3 146.4 340.8 180.7 519.1 196.3 344.9 30.2 693.3 20.6 1036.9-20.8 69.4-8.4 165.3-23.3 234.5-33.4 26.9-3.9-.2 2.6-.1 26.4.1 16.7-.1 33.4-.2 50.1q-.5 138.6-.6 277.4c0 19.3-1716.3 3.7-1919.6.1 0 0-398.4-1557-366.6-1557z"/></svg>