<svg xmlns="http://www.w3.org/2000/svg" width="1918" height="832" viewBox="0 0 1918 832"><g id="Layer_1" data-name="Layer 1"><path d="M1.5-216.8C-29.2-154.8-44.9-88.4-36-19.5c7.6,58.6,127,128,150.8,225.8,8.8,36.1-.7,74.6-9.6,110.6-8.3,33.9-28.8,64.6-34.4,98.6-10,60.7,19.2,131.3,57.7,177.4C250.8,739.3,469.3,773.6,647.6,789.2c344.9,30.2,693.3,20.6,1036.9-20.8,69.4-8.4,165.3-23.3,234.5-33.4,26.9-3.9-.2,2.6-.1,26.4.1,16.7-.1,33.4-.2,50.1q-.5,138.6-.6,277.4c0,19.3-1716.3,3.7-1919.6.1,0,0-398.4-1557-366.6-1557" fill="#523c65"/></g></svg>