<svg xmlns="http://www.w3.org/2000/svg" width="1918" height="832" viewBox="0 0 1918 832"><g id="Layer_1" data-name="Layer 1"><path d="M2.7-216.8C-28.2-154.8-43.9-88.4-35-19.5c7.6,58.6,127.4,128,151.3,225.8,8.8,36.1-.7,74.6-9.6,110.6-8.4,33.9-28.9,64.6-34.5,98.6-10,60.7,19.2,131.3,57.8,177.4C252.7,739.3,471.8,773.6,650.7,789.2c346,30.2,695.5,20.6,1040.1-20.8,69.6-8.4,165.9-23.3,235.3-33.4,26.9-3.9-.3,2.6-.1,26.4,0,16.7-.2,33.4-.2,50.1q-.5,138.6-.6,277.4c0,19.3-1721.6,3.7-1925.6.1,0,0-399.6-1557-367.7-1557" fill="#523c65"/></g></svg>