<svg xmlns="http://www.w3.org/2000/svg" width="1920" height="658" viewBox="0 0 1920 658"><g id="Layer_2" data-name="Layer 2"><path d="M1895.7,625.1C1750.3,521,1580.4,468.5,1404.2,443.5c-217.9-31-442.8-29.8-662.3-31.9C495.3,409.3,222.5,392.9,0,275c0,.2-.3-181-.3-181C255.1,168.4,921.4,310.9,1920,342V588c.3,12.5,0,58,0,58S1906,632.5,1895.7,625.1Z" fill="#ede6f4"/><path d="M1920,476.1c0-11.7-74.7-37.6-85-41.5-161.2-61.4-335.8-81-507.2-85.4-118.5-3-236.9-7.7-355.4-6.3-125.6,1.5-251.6,5.9-376.6-8.6-107-12.3-212.1-38.5-313.1-75.7-48.4-17.8-95.6-38.6-142.4-60.4C123,190.1,0,140.1,0,122.5V9C155.4,87.8,312.7,165.2,532,197l444-23,944,122Z" fill="#fff"/></g><g id="Layer_1" data-name="Layer 1"><path d="M565,159C333,133,251,115,.5,8.9V30.5c0,9.1,67.2,38.6,74.3,42.4A1708.8,1708.8,0,0,0,275.4,163c166.7,62.2,338.6,83,516.7,88.6,355.2,11,728.5-32.4,1066.7,102.3,6.8,2.7,61.1,21.6,61.2,27.1,0,0,0-87,.1-86.3-.1-7.1-.1-19.7-.1-19.7s-25.8-12.6-40-19c-220.7-94.6-428.2-140.8-669.2-138.6-110.9,1-221.6,10.5-331.8,22.9C773.7,152.2,671,170.9,565,159Z" fill="#523c65"/></g></svg>