<svg xmlns="http://www.w3.org/2000/svg" width="1919" height="484" viewBox="0 0 1919 484"><g id="Layer_1" data-name="Layer 1"><path d="M1896.6,449.1c-145.6-73.5-315.8-110.6-492.2-128.3-218.2-21.8-443.4-21-663.2-22.4C494.3,296.7,221,285.1-1.7,201.9c0,.2-.3-127.8-.3-127.8,255.7,52.6,922.9,153.1,1922.9,175.1V422.9c.2,8.9,0,41,0,41S1906.9,454.3,1896.6,449.1Z" fill="#ede6f4"/><path d="M1920.9,343.9c0-8.3-74.8-26.6-85.1-29.3-161.4-43.3-336.3-57.2-507.9-60.3-118.7-2.2-237.3-5.4-356-4.4-125.7,1-251.9,4.1-377.1-6.1a1839.8,1839.8,0,0,1-313.5-53.5c-48.4-12.6-95.7-27.2-142.5-42.6C121.4,142-1.7,106.6-1.7,94.2V14.1C153.8,69.7,311.3,124.4,531,146.8l444.6-16.2,945.3,86.1Z" fill="#fff"/><path d="M564,120C331.7,101.6,249.6,88.9-1.3,14V29.3c0,6.4,67.2,27.3,74.4,29.9,64.9,24.2,132.1,45.5,200.9,63.6,166.9,44,339,58.6,517.4,62.6,355.6,7.8,729.5-22.9,1068.1,72.2,6.8,1.9,61.2,15.2,61.3,19.1V201.9s-25.8-8.9-40.1-13.4c-221-66.8-428.7-99.4-670-97.9-111.1.8-222,7.4-332.3,16.2C773,115.2,670.2,128.4,564,120Z" fill="#523c65"/></g></svg>