<svg xmlns="http://www.w3.org/2000/svg" width="1919" height="484" viewBox="0 0 1919 484"><g id="Layer_1" data-name="Layer 1"><path d="M1895.2,449.1c-145.4-73.5-315.4-110.6-491.5-128.3-218-21.8-442.8-21-662.3-22.4C494.8,296.7,221.9,285.1-.5,201.9c0,.2-.3-127.8-.3-127.8,255.4,52.6,921.6,153.1,1920.3,175.1V422.9c.2,8.9,0,41,0,41S1905.5,454.3,1895.2,449.1Z" fill="#ede6f4"/><path d="M1919.5,343.9c0-8.3-74.7-26.6-85-29.3-161.2-43.3-335.9-57.2-507.2-60.3-118.5-2.2-237-5.4-355.5-4.4-125.5,1-251.6,4.1-376.6-6.1a1834.1,1834.1,0,0,1-313-53.5c-48.5-12.6-95.7-27.2-142.4-42.6C122.5,142-.5,106.6-.5,94.2V14.1c155.3,55.6,312.6,110.3,532,132.7l444-16.2,944,86.1Z" fill="#fff"/><path d="M564.5,120C332.5,101.6,250.5,88.9-.1,14V29.3c0,6.4,67.2,27.3,74.2,29.9,64.9,24.2,132,45.5,200.7,63.6,166.6,44,338.6,58.6,516.7,62.6,355.1,7.8,728.5-22.9,1066.7,72.2,6.7,1.9,61.1,15.2,61.2,19.1V215.8c-.1-5,0-13.9,0-13.9s-25.8-8.9-40-13.4c-220.7-66.8-428.2-99.4-669.2-97.9-110.9.8-221.6,7.4-331.8,16.2C773.2,115.2,670.5,128.4,564.5,120Z" fill="#523c65"/></g></svg>