<svg xmlns="http://www.w3.org/2000/svg" width="1920" height="1641" viewBox="0 0 1920 1641"><g id="Layer_1" data-name="Layer 1"><path d="M.5,33.9C82.7,95.3,127.2,170.6,134.1,278.2c9.5,148.5-59.1,366.9-67,515.5C61.5,899.5,1,1100,1,1100Z" fill="#ede6f4"/><path d="M-450.8,2773c-124.6-112.1-118.4-308.3-81.7-471.9,43.8-194.3,124.7-392.6,285.5-510.2,70.9-51.9,155.9-87,212.3-154.4,106-126.9,74.3-317,128.8-473.1,15.6-44.7,38.7-87.8,41.6-135,6.3-98-75.1-185.6-69.5-283.7,7.9-137.9,76.5-349.1,67-486.9C126.3,158,81.8,87.7-.4,30.7c-220.2-152.5-343.4-247.8-427.7-502s-76-540.4,34.8-784.3C-349.1-1352.7-215-1591-215-1591l6-57L-722.5-885.5v3793" fill="#523c65"/></g></svg>