<svg xmlns="http://www.w3.org/2000/svg" width="1920" height="154" viewBox="0 0 1920 154"><g id="Layer_1" data-name="Layer 1"><path d="M-85.2,22c-29.9,34.1,1716.5-44.3,2084.5,43.3,99.5,23.7,103.2,76.1,42.5,63.2C1412.8-5.3-198.4,112.4-198.4,112.4Z" fill="#523c65"/><path d="M-84.9,93.6c430,47.5,1747.3-95.4,2083.9,59.9l2-74.1C1452.4,14.4,197.3,89.5-84,56.1Z" fill="#ede6f4"/><path d="M-79.5,71-593,833.5v3793l591,184H1918l99.5-633c-266.9,233.7-607.1,264.2-957.9,317.2s-708.4,34-1061.5-.4c-111.2-10.8-236.3,72.4-319.4-2.3-124.6-112.1-118.4-308.3-81.7-471.9,43.8-194.3,124.7-392.6,285.5-510.2,70.9-51.9,155.9-87,212.3-154.4,106-126.9,74.3-317,128.8-473.1,15.6-44.7,38.7-87.8,41.6-135,6.3-98-75.1-185.6-69.5-283.7,7.9-137.9,181.5-230.1,172-367.9-6.9-99.8-105.4-163.1-187.6-220.1-220.2-152.5-394.4-373.8-478.7-628s-76-540.4,34.8-784.3C-219.6,366.3-85.5,128-85.5,128Z" fill="#523c65"/></g></svg>