<svg xmlns="http://www.w3.org/2000/svg" width="1920" height="323" viewBox="0 0 1920 323"><g id="Layer_1" data-name="Layer 1"><path d="M-264.3-3769.6c-110.8,243.9-119.2,530-34.8,784.3s258.5,475.5,478.7,628c82.2,57,180.7,120.3,187.6,220.1,9.5,137.8-164.1,230-172,367.9-5.6,98.1,75.8,185.7,69.5,283.7-2.9,47.2-26,90.3-41.6,135-54.5,156.1-22.8,346.2-128.8,473.1C37.9-810.1-47.1-775-118-723.1-278.8-605.5-359.7-407.2-403.5-212.9-440.2-49.3-446.4,146.9-321.8,259c83.1,74.7,208.2-8.5,319.4,2.3,353.1,34.4,710.7,53.4,1061.5.4s691-83.5,957.9-317.2l-99.5,633H-2.5l-591-184v-3793l591-1509h1921c-.1,464.6,73.2,949.9,71.5,1414.5-1.2,331.5-35.1,695.5-40,1027-5.9-168.3-70.6-309.5-111-469-66.7-263,38.6-489.2,152.3-703,15.2-28.7,156.5-279.8,47.7-266-71,9,48.1-150.9-40-208-340.1-220.4-1654,64-2085,8C-86-4105-220.1-3866.7-264.3-3769.6Z" fill="#523c65"/></g></svg>