<svg xmlns="http://www.w3.org/2000/svg"><symbol id="facebook" viewBox="0 0 80.1 80.1"><circle cx="40" cy="40.1" r="39.5"/><path fill="#fff" d="M76.1 40.1a36 36 0 1 0-41.7 35.5V50.5h-9.1V40.1h9.1v-8c0-9 5.4-14 13.6-14a55.4 55.4 0 0 1 8.1.7v8.9h-4.5c-4.5 0-5.9 2.8-5.9 5.6v6.8h10l-1.6 10.4h-8.4v25.1a36 36 0 0 0 30.4-35.5z"/></symbol><symbol id="linked-in" viewBox="0 0 82 82"><circle cx="41" cy="41" r="39.5"/><path fill="#fff" d="M41 5a36 36 0 1 0 36 36A36 36 0 0 0 41 5zm-9.6 53.4h-7.9V32.9h7.9zm-4-28.9a4.7 4.7 0 1 1 4.7-4.7 4.7 4.7 0 0 1-4.7 4.7zM61 58.4h-7.8V45c0-3.7-1.4-5.7-4.3-5.7S44 41.4 44 45v13.4h-7.5V32.9H44v3.4a9 9 0 0 1 7.7-4.2c5.5 0 9.3 3.3 9.3 10.2zm5.3 0a2.6 2.6 0 0 1-2.7-2.6 2.7 2.7 0 0 1 5.3 0 2.6 2.6 0 0 1-2.6 2.6z"/><path fill="#fff" d="M66.2 53.6a2.3 2.3 0 0 0-2.3 2.3 2.4 2.4 0 0 0 2.3 2.3 2.3 2.3 0 0 0 2.3-2.3 2.3 2.3 0 0 0-2.3-2.3zm1.2 3.7H67l-.8-1.2h-.5v1.2h-.4v-2.9h1.3a.8.8 0 0 1 .8.9.7.7 0 0 1-.8.7z"/><path fill="#fff" d="M66.9 55.2a.4.4 0 0 0-.4-.4h-.8v.9h.8s.4 0 .4-.5z"/></symbol><symbol id="tiktok" viewBox="0 0 79.6 79.6"><circle cx="39.7" cy="40" r="39.5"/><path fill="#fff" d="M39.8 3.8a36 36 0 1 0 36 36 36 36 0 0 0-36-36zm22 31c-4 .4-7.5-.9-11.5-3.3v14.7c0 18.8-20.4 24.7-28.6 11.2-5.3-8.6-2.1-23.8 14.9-24.4v8.3a19.5 19.5 0 0 0-4 1c-3.8 1.2-5.9 3.6-5.3 7.8 1.1 8.1 16 10.5 14.7-5.3V15.3h8.2c.8 7 4.7 11.2 11.6 11.6z"/></symbol><symbol id="instagram" viewBox="0 0 80.1 80.1"><circle cx="40" cy="40.1" r="39.5"/><path fill="#fff" d="M40 32.9a7.2 7.2 0 1 0 7.2 7.1 7.1 7.1 0 0 0-7.2-7.1z"/><path fill="#fff" d="M56.7 27.4a7.1 7.1 0 0 0-4-4.1 12.4 12.4 0 0 0-4-.7H31.4a11.9 11.9 0 0 0-4 .7 8.2 8.2 0 0 0-2.5 1.6 8.2 8.2 0 0 0-1.6 2.5 11.9 11.9 0 0 0-.7 4c-.1 2.2-.1 2.9-.1 8.6s0 6.4.1 8.7a12.4 12.4 0 0 0 .7 4 7.1 7.1 0 0 0 4.1 4 11.2 11.2 0 0 0 4 .8h17.3a11.8 11.8 0 0 0 4-.8 7.4 7.4 0 0 0 4-4 11.8 11.8 0 0 0 .8-4c.1-2.3.1-3 .1-8.7s0-6.4-.1-8.6a11.2 11.2 0 0 0-.8-4zM40 51a11 11 0 1 1 11-11 11 11 0 0 1-11 11zm11.5-19.8a2.6 2.6 0 1 1 2.5-2.6 2.6 2.6 0 0 1-2.5 2.6z"/><path fill="#fff" d="M40 4a36 36 0 1 0 36 36A36 36 0 0 0 40 4zm21.3 44.9a14.5 14.5 0 0 1-1 5.2 10.2 10.2 0 0 1-6.2 6.2 14.5 14.5 0 0 1-5.2 1H31.2a14.1 14.1 0 0 1-5.2-1 11.1 11.1 0 0 1-3.8-2.4 11.4 11.4 0 0 1-2.5-3.8 17.1 17.1 0 0 1-1-5.2c-.1-2.3-.1-3.1-.1-8.9s0-6.5.1-8.8a16.5 16.5 0 0 1 1-5.2 11.3 11.3 0 0 1 6.3-6.3 16.5 16.5 0 0 1 5.2-1h17.7a17.1 17.1 0 0 1 5.2 1 11.4 11.4 0 0 1 3.8 2.5 11.1 11.1 0 0 1 2.4 3.8 14.1 14.1 0 0 1 1 5.2c.1 2.3.1 3 .1 8.8s0 6.6-.1 8.9z"/></symbol><symbol id="pinterest" viewBox="0 0 80.2 80.2"><circle cx="40.1" cy="40.3" r="39.5"/><path id="art" fill="#fff" d="M40.1 4.1A36 36 0 0 0 27 73.6a32.4 32.4 0 0 1 .1-10.3c.6-2.9 4.2-17.9 4.2-17.9a12.9 12.9 0 0 1-1.1-5.3c0-5.1 2.9-8.8 6.5-8.8s4.6 2.3 4.6 5.1-2 7.7-3 12a5.2 5.2 0 0 0 5.3 6.5c6.4 0 11.3-6.8 11.3-16.5s-6.1-14.6-15-14.6-16.2 7.7-16.2 15.6a13.8 13.8 0 0 0 2.6 8.2 1.4 1.4 0 0 1 .3 1c-.3 1.2-.9 3.6-1.1 4.1s-.5.8-1.2.5c-4.5-2.1-7.3-8.6-7.3-13.9 0-11.4 8.2-21.8 23.8-21.8 12.5 0 22.2 8.9 22.2 20.8s-7.8 22.4-18.7 22.4c-3.6 0-7.1-1.9-8.2-4.2 0 0-1.8 6.9-2.3 8.6s-3 7-4.4 9.4A36.7 36.7 0 0 0 40 76.1a36 36 0 0 0 .1-72z"/></symbol><symbol id="twitter" viewBox="0 0 79.6 79.6"><circle cx="39.8" cy="39.8" r="36.1" fill="#fff"/><circle cx="39.8" cy="39.8" r="39.5"/><circle id="Dark_Blue" cx="39.8" cy="39.8" r="36" fill="#fff"/><path id="Logo_FIXED" d="M33.2 58.8c16 0 24.7-13.2 24.7-24.7V33a16.7 16.7 0 0 0 4.3-4.5 19.8 19.8 0 0 1-4.9 1.4 9.1 9.1 0 0 0 3.8-4.8 21.6 21.6 0 0 1-5.5 2.1 8.8 8.8 0 0 0-6.4-2.8 8.6 8.6 0 0 0-8.6 8.7 6.8 6.8 0 0 0 .2 2A24.7 24.7 0 0 1 22.9 26a9.3 9.3 0 0 0-1.2 4.4 8.8 8.8 0 0 0 3.9 7.2 9.8 9.8 0 0 1-3.9-1.1 8.7 8.7 0 0 0 6.9 8.5 8.5 8.5 0 0 1-2.3.3h-1.6a8.7 8.7 0 0 0 8.1 6A17.6 17.6 0 0 1 22 55h-2a23.8 23.8 0 0 0 13.2 3.9"/></symbol><symbol id="youtube" viewBox="0 0 80.1 80.1"><circle cx="40" cy="40.1" r="39.5"/><path fill="#fff" d="M40.1 4.1a36 36 0 1 0 36 36 36 36 0 0 0-36-36zm25 48.9a6.6 6.6 0 0 1-4.6 4.7c-4.1 1.1-20.4 1.1-20.4 1.1s-16.4 0-20.4-1.1a6.4 6.4 0 0 1-4.6-4.7C14 48.9 14 40.4 14 40.4s0-8.6 1.1-12.7a6.5 6.5 0 0 1 4.6-4.6c4-1.1 20.4-1.1 20.4-1.1s16.3 0 20.4 1.1a6.7 6.7 0 0 1 4.6 4.6c1.1 4.1 1.1 12.7 1.1 12.7s0 8.5-1.1 12.6z"/><path fill="#fff" d="M34.7 48.2l13.7-7.8-13.7-7.8v15.6z"/></symbol><symbol id="twitch" viewBox="0 0 84.2 84.2"><circle cx="42" cy="42.1" r="39.6"/><path fill="#fff" d="M39.3 57.6l6.2-6.2h7.1l7.2-7.2V24.6H31.2v26.8h8.1zm11.5-26.7h3.6v10.7h-3.6zm-9.8 0h3.6v10.7H41z"/><path fill="#fff" d="M41.9 6.1a36 36 0 1 0 36 36 36 36 0 0 0-36-36zM63.3 46l-16 16.1h-7.1l-9 8.9v-8.9H20.6V30l8.9-8.9h33.8z"/></symbol><symbol id="facebook" viewBox="0 0 80.1 80.1"><circle cx="40" cy="40.1" r="39.5"/><path fill="#fff" d="M76.1 40.1a36 36 0 1 0-41.7 35.5V50.5h-9.1V40.1h9.1v-8c0-9 5.4-14 13.6-14a55.4 55.4 0 0 1 8.1.7v8.9h-4.5c-4.5 0-5.9 2.8-5.9 5.6v6.8h10l-1.6 10.4h-8.4v25.1a36 36 0 0 0 30.4-35.5z"/></symbol><symbol id="instagram" viewBox="0 0 80.1 80.1"><circle cx="40" cy="40.1" r="39.5"/><path fill="#fff" d="M40 32.9a7.2 7.2 0 1 0 7.2 7.1 7.1 7.1 0 0 0-7.2-7.1z"/><path fill="#fff" d="M56.7 27.4a7.1 7.1 0 0 0-4-4.1 12.4 12.4 0 0 0-4-.7H31.4a11.9 11.9 0 0 0-4 .7 8.2 8.2 0 0 0-2.5 1.6 8.2 8.2 0 0 0-1.6 2.5 11.9 11.9 0 0 0-.7 4c-.1 2.2-.1 2.9-.1 8.6s0 6.4.1 8.7a12.4 12.4 0 0 0 .7 4 7.1 7.1 0 0 0 4.1 4 11.2 11.2 0 0 0 4 .8h17.3a11.8 11.8 0 0 0 4-.8 7.4 7.4 0 0 0 4-4 11.8 11.8 0 0 0 .8-4c.1-2.3.1-3 .1-8.7s0-6.4-.1-8.6a11.2 11.2 0 0 0-.8-4zM40 51a11 11 0 1 1 11-11 11 11 0 0 1-11 11zm11.5-19.8a2.6 2.6 0 1 1 2.5-2.6 2.6 2.6 0 0 1-2.5 2.6z"/><path fill="#fff" d="M40 4a36 36 0 1 0 36 36A36 36 0 0 0 40 4zm21.3 44.9a14.5 14.5 0 0 1-1 5.2 10.2 10.2 0 0 1-6.2 6.2 14.5 14.5 0 0 1-5.2 1H31.2a14.1 14.1 0 0 1-5.2-1 11.1 11.1 0 0 1-3.8-2.4 11.4 11.4 0 0 1-2.5-3.8 17.1 17.1 0 0 1-1-5.2c-.1-2.3-.1-3.1-.1-8.9s0-6.5.1-8.8a16.5 16.5 0 0 1 1-5.2 11.3 11.3 0 0 1 6.3-6.3 16.5 16.5 0 0 1 5.2-1h17.7a17.1 17.1 0 0 1 5.2 1 11.4 11.4 0 0 1 3.8 2.5 11.1 11.1 0 0 1 2.4 3.8 14.1 14.1 0 0 1 1 5.2c.1 2.3.1 3 .1 8.8s0 6.6-.1 8.9z"/></symbol><symbol id="pinterest" viewBox="0 0 80.2 80.2"><circle cx="40.1" cy="40.3" r="39.5"/><path id="art" fill="#fff" d="M40.1 4.1A36 36 0 0 0 27 73.6a32.4 32.4 0 0 1 .1-10.3c.6-2.9 4.2-17.9 4.2-17.9a12.9 12.9 0 0 1-1.1-5.3c0-5.1 2.9-8.8 6.5-8.8s4.6 2.3 4.6 5.1-2 7.7-3 12a5.2 5.2 0 0 0 5.3 6.5c6.4 0 11.3-6.8 11.3-16.5s-6.1-14.6-15-14.6-16.2 7.7-16.2 15.6a13.8 13.8 0 0 0 2.6 8.2 1.4 1.4 0 0 1 .3 1c-.3 1.2-.9 3.6-1.1 4.1s-.5.8-1.2.5c-4.5-2.1-7.3-8.6-7.3-13.9 0-11.4 8.2-21.8 23.8-21.8 12.5 0 22.2 8.9 22.2 20.8s-7.8 22.4-18.7 22.4c-3.6 0-7.1-1.9-8.2-4.2 0 0-1.8 6.9-2.3 8.6s-3 7-4.4 9.4A36.7 36.7 0 0 0 40 76.1a36 36 0 0 0 .1-72z"/></symbol><symbol id="linked-in" viewBox="0 0 82 82"><circle cx="41" cy="41" r="39.5"/><path fill="#fff" d="M41 5a36 36 0 1 0 36 36A36 36 0 0 0 41 5zm-9.6 53.4h-7.9V32.9h7.9zm-4-28.9a4.7 4.7 0 1 1 4.7-4.7 4.7 4.7 0 0 1-4.7 4.7zM61 58.4h-7.8V45c0-3.7-1.4-5.7-4.3-5.7S44 41.4 44 45v13.4h-7.5V32.9H44v3.4a9 9 0 0 1 7.7-4.2c5.5 0 9.3 3.3 9.3 10.2zm5.3 0a2.6 2.6 0 0 1-2.7-2.6 2.7 2.7 0 0 1 5.3 0 2.6 2.6 0 0 1-2.6 2.6z"/><path fill="#fff" d="M66.2 53.6a2.3 2.3 0 0 0-2.3 2.3 2.4 2.4 0 0 0 2.3 2.3 2.3 2.3 0 0 0 2.3-2.3 2.3 2.3 0 0 0-2.3-2.3zm1.2 3.7H67l-.8-1.2h-.5v1.2h-.4v-2.9h1.3a.8.8 0 0 1 .8.9.7.7 0 0 1-.8.7z"/><path fill="#fff" d="M66.9 55.2a.4.4 0 0 0-.4-.4h-.8v.9h.8s.4 0 .4-.5z"/></symbol><symbol id="tiktok" viewBox="0 0 79.6 79.6"><circle cx="39.7" cy="40" r="39.5"/><path fill="#fff" d="M39.8 3.8a36 36 0 1 0 36 36 36 36 0 0 0-36-36zm22 31c-4 .4-7.5-.9-11.5-3.3v14.7c0 18.8-20.4 24.7-28.6 11.2-5.3-8.6-2.1-23.8 14.9-24.4v8.3a19.5 19.5 0 0 0-4 1c-3.8 1.2-5.9 3.6-5.3 7.8 1.1 8.1 16 10.5 14.7-5.3V15.3h8.2c.8 7 4.7 11.2 11.6 11.6z"/></symbol><symbol id="twitch" viewBox="0 0 84.2 84.2"><circle cx="42" cy="42.1" r="39.6"/><path fill="#fff" d="M39.3 57.6l6.2-6.2h7.1l7.2-7.2V24.6H31.2v26.8h8.1zm11.5-26.7h3.6v10.7h-3.6zm-9.8 0h3.6v10.7H41z"/><path fill="#fff" d="M41.9 6.1a36 36 0 1 0 36 36 36 36 0 0 0-36-36zM63.3 46l-16 16.1h-7.1l-9 8.9v-8.9H20.6V30l8.9-8.9h33.8z"/></symbol><symbol id="twitter" viewBox="0 0 79.6 79.6"><circle cx="39.8" cy="39.8" r="36.1" fill="#fff"/><circle cx="39.8" cy="39.8" r="39.5"/><circle id="Dark_Blue" cx="39.8" cy="39.8" r="36" fill="#fff"/><path id="Logo_FIXED" d="M33.2 58.8c16 0 24.7-13.2 24.7-24.7V33a16.7 16.7 0 0 0 4.3-4.5 19.8 19.8 0 0 1-4.9 1.4 9.1 9.1 0 0 0 3.8-4.8 21.6 21.6 0 0 1-5.5 2.1 8.8 8.8 0 0 0-6.4-2.8 8.6 8.6 0 0 0-8.6 8.7 6.8 6.8 0 0 0 .2 2A24.7 24.7 0 0 1 22.9 26a9.3 9.3 0 0 0-1.2 4.4 8.8 8.8 0 0 0 3.9 7.2 9.8 9.8 0 0 1-3.9-1.1 8.7 8.7 0 0 0 6.9 8.5 8.5 8.5 0 0 1-2.3.3h-1.6a8.7 8.7 0 0 0 8.1 6A17.6 17.6 0 0 1 22 55h-2a23.8 23.8 0 0 0 13.2 3.9"/></symbol><symbol id="youtube" viewBox="0 0 80.1 80.1"><circle cx="40" cy="40.1" r="39.5"/><path fill="#fff" d="M40.1 4.1a36 36 0 1 0 36 36 36 36 0 0 0-36-36zm25 48.9a6.6 6.6 0 0 1-4.6 4.7c-4.1 1.1-20.4 1.1-20.4 1.1s-16.4 0-20.4-1.1a6.4 6.4 0 0 1-4.6-4.7C14 48.9 14 40.4 14 40.4s0-8.6 1.1-12.7a6.5 6.5 0 0 1 4.6-4.6c4-1.1 20.4-1.1 20.4-1.1s16.3 0 20.4 1.1a6.7 6.7 0 0 1 4.6 4.6c1.1 4.1 1.1 12.7 1.1 12.7s0 8.5-1.1 12.6z"/><path fill="#fff" d="M34.7 48.2l13.7-7.8-13.7-7.8v15.6z"/></symbol></svg>