<svg id="Layer_1" data-name="Layer 1" xmlns="http://www.w3.org/2000/svg" width="11.8cm" height="3.7cm" viewBox="0 0 335.6 105.6"><path d="M123.5,59.8a4.8,4.8,0,0,1,.6,1.8l.3,1.9a10.6,10.6,0,0,0,.4,1.9,2.4,2.4,0,0,0,1,1.4,1.4,1.4,0,0,1-.2.7c-.1.3-.3.4-.4.6l-.6.5-.3.7a13.7,13.7,0,0,0-.2,1.9,1.6,1.6,0,0,1-1.1,1.5,5.4,5.4,0,0,1,.1.8,3.3,3.3,0,0,1-.3,1.5,4.2,4.2,0,0,0-.1,1.6,19.1,19.1,0,0,0-2.2,3,12.8,12.8,0,0,0-1.4,3.4l-5.9,5.8c-2,1.9-4,3.8-6.1,5.6s-4.3,3.5-6.5,5.2a73.1,73.1,0,0,1-7,4.3h-.5a5.5,5.5,0,0,0-2.8.6,10.7,10.7,0,0,1-2.6,1.1,10.9,10.9,0,0,0-2.8-.3H81a8.5,8.5,0,0,1-2.3-.3l-2.1-.7-1.9-.7a7.9,7.9,0,0,0-2.2-.6,35.8,35.8,0,0,1-7.6-11.2,32.3,32.3,0,0,1-2.8-13.2,23.7,23.7,0,0,1,.9-6.5,21.8,21.8,0,0,0,.8-5.7,48.7,48.7,0,0,0,2.4-5.7c.7-2,1.4-4,2.2-5.9s1.5-3.9,2.3-5.8a36,36,0,0,1,3.1-5.4A13,13,0,0,1,75,40.2l1.9-3.3a6.9,6.9,0,0,1,.8-3.2,10,10,0,0,0,.8-3.2,10,10,0,0,0,2.1-2.6l1.5-3.1a21,21,0,0,1,1.5-3,9.6,9.6,0,0,1,2.5-2.4,5,5,0,0,0,.2-1.2,1.8,1.8,0,0,1,.3-1.1l1.7-1.8a14.3,14.3,0,0,0,1.4-2,9.7,9.7,0,0,1,1.5-1.9,3.9,3.9,0,0,1,1-.8l.9-.7a1,1,0,0,0,.3-1,1.1,1.1,0,0,1,.2-1l.5-.4.6-.3,1.7-1.4a4.3,4.3,0,0,1,1.9-1l2-1.7,1.8-1.5A8.8,8.8,0,0,1,104.2.4a7,7,0,0,1,2.7-.4h1.2a12.7,12.7,0,0,1,4,7.2,10.9,10.9,0,0,0-1.4,2.3,18.9,18.9,0,0,1-1.1,2.5,12.3,12.3,0,0,0-2.5,1.4l-2.3,1.8a12.4,12.4,0,0,1-2.3,1.7,6,6,0,0,1-2.7.7l-2,1.7L95,21.9l-2.6,2.5-1.6,1.7-.3.7a4.3,4.3,0,0,0-.4.7l-2,3.4c-1.1,2-2.3,3.9-3.5,5.8a47.5,47.5,0,0,0-3.1,5.9c-.4,1-.7,1.9-1,2.8s-.5,2-.8,3a3.6,3.6,0,0,1-.4.9l-.4.9-1.4,3a16.1,16.1,0,0,0-.6,3.3c-1.3,2.9-2.5,5.8-3.6,8.8a46.2,46.2,0,0,0-2.5,9,11.7,11.7,0,0,1,.4,3.2v3.1a16.2,16.2,0,0,0,.2,3.3,15.5,15.5,0,0,0,.8,2.3c.3.7.7,1.4,1.1,2.2L74.7,91l2.1,2a19.5,19.5,0,0,1,1.7,2.3,13.3,13.3,0,0,0,6,1.5,14.1,14.1,0,0,0,4.5-.7,39.8,39.8,0,0,0,4.4-1.7l4.1-2.3,3.9-2.5a24.8,24.8,0,0,0,5.7-4.2,38.9,38.9,0,0,0,4.4-4.7,50.1,50.1,0,0,0,3.7-5.3l3.6-6.1a2.3,2.3,0,0,1,.3-.9l.5-1.2c.1-.4.3-.8.4-1.1a2.5,2.5,0,0,0,.2-.7c0-.4-.1-.7-.3-.8a.9.9,0,0,1-.3-.6,1.2,1.2,0,0,1,.3-.9l.8-.5.8-.5a1.7,1.7,0,0,0,.3-1.2m1.7-1.1-1.7,1.1h-2.1a2,2,0,0,1-1.5-.6l-.8.5-.8.7-.6.7a.9.9,0,0,1-.6.3h-.5a1.1,1.1,0,0,0-.6-.2,3.9,3.9,0,0,0-2.3.7l-2,.9h-1.1a5.1,5.1,0,0,0-1.7.3l-1.5.5-1.5.6a4.5,4.5,0,0,1-1.6.1l-3.2,1.4h-.7l-1.3.3a2.2,2.2,0,0,0-1.5,1.1,3.1,3.1,0,0,0-2.1-.7,5.7,5.7,0,0,0-2.2.4,6.1,6.1,0,0,1-2.4.4h-.6a13.4,13.4,0,0,0-.7-1.8,2.3,2.3,0,0,0-1.2-1.2l-.3-1.7a8.1,8.1,0,0,1-.1-1.6,6.6,6.6,0,0,1,1.2-3.8,19.5,19.5,0,0,1,2.3-.6L92,57l1.7.2h1.7c1.1,0,7.3-1.3,7.3-1.3,1.9-.4,3.8-1,5.7-1.5l5.4-1.6a20.7,20.7,0,0,1,5.5-1.1c1.3-.9,2.4-.8,4.2-1.1h1.7l7.7-2.6h.8a12.4,12.4,0,0,0,2.7-.3,9,9,0,0,1,2.8-.4h1.2l1.2-.3,1.3-.5a21.1,21.1,0,0,0,2.3,1.9,10.5,10.5,0,0,1,2.2,2c-.1.6-.3,1.3-.5,2.1a20,20,0,0,1-1,2.1,5.4,5.4,0,0,1-1.4,1.6,2.9,2.9,0,0,1-2,.7l-1.7-.2-1.8-.2a1.1,1.1,0,0,0-.8.3,1.5,1.5,0,0,1-.9.2H136l-.8.2-1.4.3-1.3.3-.8.3a33.1,33.1,0,0,1-4.2,1.2,21.3,21.3,0,0,1-4.4.7" fill="#523c65"/><path d="M188.2,67a3.9,3.9,0,0,1-1,1.9,7,7,0,0,1-1.6,1.4,12.2,12.2,0,0,1-1.9,1.2,11.8,11.8,0,0,0-1.9,1.1h-1.1a7.2,7.2,0,0,1-5-1.6,12.8,12.8,0,0,1-2.7-4,23.7,23.7,0,0,1-1.3-5.1c-.3-1.8-.7-3.4-1.1-4.9a6.5,6.5,0,0,0-1.5,1.8l-1.3,2.1a13,13,0,0,1-1.5,1.8,4,4,0,0,1-2.1,1.2,5.4,5.4,0,0,0-.5,1.1,3.6,3.6,0,0,0-.4,1.1,24.4,24.4,0,0,0-3.1,2.2l-2.8,2.6-2.8,2.5a13.8,13.8,0,0,1-3.3,2H151a3.4,3.4,0,0,0-1.7.5,4.7,4.7,0,0,1-1.7.4l-1.1-.2-1-.6-1.1-.5a2.4,2.4,0,0,0-1.2,0,10,10,0,0,0-2-2.6,5,5,0,0,1-1.6-2.8,7.8,7.8,0,0,1-.2-1.4,10,10,0,0,0-.2-1.6l-.6-2.3a23.3,23.3,0,0,1-.7-2.5c.3-1.4.5-2.9.8-4.6s.5-3.4.8-5.1a33.6,33.6,0,0,1,1.4-4.8,14.9,14.9,0,0,1,2.3-3.9v-.6a5.9,5.9,0,0,1,.4-2.3l1-2.1c.4-.7.7-1.4,1-2a4.4,4.4,0,0,0,.1-2.3l2-.8a6.6,6.6,0,0,1,2.1-.3,5.2,5.2,0,0,1,1.8.3c-.1.4.1.7.6.8v.2a11.2,11.2,0,0,1-.4,3.2l-.9,3.1c-.4,1-.8,2-1.1,3a19.5,19.5,0,0,0-.7,3.1l-.5.3c0,.2-.1.3-.2.5a.8.8,0,0,1-.2.4h-.5q-.4,2.9-.9,5.4a25,25,0,0,0-.5,5.5,19.3,19.3,0,0,0,.3,3.3,14.2,14.2,0,0,0,1.1,3.3h.4a1.8,1.8,0,0,1,1.3.4l1.4.8L152,66a.8.8,0,0,0,.4-.9,5.8,5.8,0,0,0,1.7-.5l1.3-1,1.1-1.1a4.4,4.4,0,0,1,1.5-.8.9.9,0,0,1,.3-.7l.4-.5a1,1,0,0,0,.4-.5,2,2,0,0,0,0-.8,2.6,2.6,0,0,0,1.4-.4l1-.9.8-1.1a2.8,2.8,0,0,1,1-.9l1.5-3.1c.7-1.3,1.3-2.7,2-4.1s1.2-2.7,1.7-4a8.4,8.4,0,0,0,.7-2.9.8.8,0,0,0-.2-.7,1.7,1.7,0,0,1-.1-.7v-.2a10.8,10.8,0,0,0,1.1-1.8c.4-.6.7-1.2,1.1-1.7s.9-1.1,1.3-1.6a5.4,5.4,0,0,1,1.8-1.1,22.7,22.7,0,0,0,2.5.6,10.2,10.2,0,0,1,2.5.6,41.4,41.4,0,0,0,.4,4.5,12.3,12.3,0,0,0,1.1,4.3,12.7,12.7,0,0,1-.1,2v1.9c0,1,0,2.1.1,3.2a26.8,26.8,0,0,0,.5,3,5.3,5.3,0,0,0-.5,2.5,9.7,9.7,0,0,0,.5,3.4,17.7,17.7,0,0,1,.8,3.3,2.9,2.9,0,0,0,2.6,1.4h.7l.6-.3,1.1,1.4Z" fill="#523c65"/><path d="M255.5,21.3a6.4,6.4,0,0,1-1,1.8l-1.3,1.7a5.7,5.7,0,0,0-1.1,1.6,3.6,3.6,0,0,0-.3,2.1h-.7a3,3,0,0,0-2,.6,5.5,5.5,0,0,1-1.7,1,3.6,3.6,0,0,0-.4-.9,1.3,1.3,0,0,0-.7-.6c-1.2.3-2.5.4-3.7.6l-3.8.5-1.7.4-1.8.5a1.6,1.6,0,0,1-1,.1h-1.1l-4,.2a9.5,9.5,0,0,0-3.9,1.3,9,9,0,0,0-1.6-.3h-1.8a30.1,30.1,0,0,0-4,.4,10.6,10.6,0,0,0-4,1.4c-.2-.2-.5-.2-.8-.3h-1.4a2.3,2.3,0,0,0,.2,1.4,2.2,2.2,0,0,0,.9,1,5.8,5.8,0,0,0-.3,1.9,21.1,21.1,0,0,0,.2,2.6,12.3,12.3,0,0,1,.2,2.7,4.7,4.7,0,0,1-.4,2.3,16.4,16.4,0,0,1,.8,5,10.9,10.9,0,0,1-.1,1.8,12.1,12.1,0,0,0-.1,1.9,1.7,1.7,0,0,0,.6,1.4,1.7,1.7,0,0,1,.6,1.4,1.3,1.3,0,0,1-.1.6l2.1-.7a4.6,4.6,0,0,1,2.1-.4l1.2.2,1,.7c0,.2-.1.5-.1.8v2.5c0,.5.1,1.1.1,1.6a10.1,10.1,0,0,1-1.4,2,4.2,4.2,0,0,0-1.1,2.2,3.6,3.6,0,0,0-2.1.5l-1.7,1.1-1.5,1a2.9,2.9,0,0,1-1.7.6,3.2,3.2,0,0,1-1.7-.4,4.6,4.6,0,0,1-.7-.7,4.3,4.3,0,0,0-.4-.7c-.1-.2-.4-.3-.8-.3a4.9,4.9,0,0,0-.7-1.9l-.9-1.7a16.2,16.2,0,0,1-1-1.8,7.1,7.1,0,0,1-.8-1.8,19.9,19.9,0,0,1-.4-4.2,8.5,8.5,0,0,0-.7-4.2l.3-2.2V47.2c0-1.4,0-2.8-.1-4.3s-.1-2.9-.2-4.4a3.8,3.8,0,0,1-.6-1.6,9.9,9.9,0,0,1-.2-1.7l-.5-.5a.9.9,0,0,1-.4-.6l-.9-.2a3.5,3.5,0,0,0-1.8.5,2.4,2.4,0,0,1-1.4.6l-1.2-.2-1.1-.2a.6.6,0,0,0-.5.2c0,.2-.1.3-.3.4l-1.1.3-1.9.3-2,.2h-1.3a2.7,2.7,0,0,1-1.9-.5l-1.6-1.1a1.8,1.8,0,0,0,.1-.6,1.8,1.8,0,0,0-.4-1.3,1.4,1.4,0,0,1-.5-.9,1.4,1.4,0,0,1,.7-1.3,1.8,1.8,0,0,0,.7-1.5,22.9,22.9,0,0,1,3.7-1.2l3.8-.6,3.8-.5a23.6,23.6,0,0,0,3.8-1h2.1a23.1,23.1,0,0,0,4.6-.5,25,25,0,0,1,4.7-.5h1.3l1.2.2,6.2-1c2.1-.4,4.2-.7,6.4-.9l3-.3,3.1-.4.8-.2a1,1,0,0,0,.3-.8,4.1,4.1,0,0,0,1.6.3,7.4,7.4,0,0,0,2.5-.5,8,8,0,0,1,2.6-.5h1c.4,0,.6-.2.6-.5a.8.8,0,0,1,.7-.7l1.6-.2,2.1-.2,2.1-.3a2.6,2.6,0,0,0,1.5-.6l.5-.8a2.4,2.4,0,0,1,2.1,1.2,4.8,4.8,0,0,1,.7,2.4,1.2,1.2,0,0,0,.9.3h1.3Z" fill="#523c65"/><path d="M335.6,61.2a3.7,3.7,0,0,1-1.2,2.1,5.3,5.3,0,0,1-2.1,1.1,9.4,9.4,0,0,1-2.4.6l-2.3.2-2,1.2-1.7,1.3c-4.6.6-9.1,1.3-13.6,2.1s-9,1.5-13.5,2.1a5.7,5.7,0,0,1-2.4.8l-3.1.3-3.2.4a7.9,7.9,0,0,0-2.7,1,36,36,0,0,0-9.8,1.7l-1.7-.4h-3.2a1.5,1.5,0,0,0-1.2.7,5.9,5.9,0,0,0-4.5-1.1,15.4,15.4,0,0,1-3.7-2.3,8.5,8.5,0,0,1-2.4-3.6V67.5a2.6,2.6,0,0,0-1.1-1.4,1.2,1.2,0,0,1,.3-.9,1.3,1.3,0,0,0,.5-.9,2.5,2.5,0,0,1-.3-1.3,8.4,8.4,0,0,1,.4-2.7,4.7,4.7,0,0,0,.2-2.6,16.6,16.6,0,0,1,2.5-3.4,41.2,41.2,0,0,1,2.8-3.1l2.9-3.1,2.7-3.3a8.7,8.7,0,0,0,2.7-1.4l2.3-2.1,2.3-2.1a9.2,9.2,0,0,1,2.7-1.6,2.2,2.2,0,0,1,.5-.8,2.7,2.7,0,0,1,.8-.7,4.6,4.6,0,0,0,.7-.7,4.1,4.1,0,0,0,.5-.9h-.7a54.8,54.8,0,0,0-7,.4l-7,1-6.9,1.2c-2.2.4-4.5.8-6.9,1l-2.9,1.3-3,1.1a18.8,18.8,0,0,0-3,1.2,9.2,9.2,0,0,0-2.5,1.7h-.7a2.4,2.4,0,0,1-1.5-.4l-1.4-.5a15.5,15.5,0,0,0-.5-2.3,10,10,0,0,1-.4-2.4,2.9,2.9,0,0,1,.4-1.7,1.8,1.8,0,0,0,1.5-.7,4,4,0,0,1,1.3-1.3.5.5,0,0,0,.4.3.9.9,0,0,0,.7-.3,2.7,2.7,0,0,1,.8-.7l1.1-.5a3.9,3.9,0,0,1,1.6-.2,14.4,14.4,0,0,1,4.4-1.5l4.6-.7a1.9,1.9,0,0,0,.8-.4l.6-.7h1.6a30.3,30.3,0,0,0,6.7-.5l6.7-1.3,6.6-1.2a31.9,31.9,0,0,1,6.9-.2,4.7,4.7,0,0,1,1.7-.4h1.8l2.8.2a12.2,12.2,0,0,1,2.7.9,5.1,5.1,0,0,1,2.1,1.7,3.7,3.7,0,0,1,.8,2.6,3.7,3.7,0,0,1-.3,1.5l-1,1.4-1.1,1.2a4.3,4.3,0,0,0-1.2,1.1,15.6,15.6,0,0,0-1.6,2,10.7,10.7,0,0,1-1.8,1.9.8.8,0,0,0-.8.2,1,1,0,0,1-.8.3,2,2,0,0,0-1.2,1.7,30.5,30.5,0,0,0-4,2.1,8.6,8.6,0,0,0-3.2,3.1,35.5,35.5,0,0,0-3.1,2.3l-2.7,2.7c-.9,1-1.8,1.9-2.6,2.9l-2.7,2.7a7.9,7.9,0,0,1-.6,2.2,18,18,0,0,1-.8,2.1,2.5,2.5,0,0,0,.5,1.5,2.3,2.3,0,0,1,.6,1.6,25,25,0,0,0,3.8.6l3.9.2a25.6,25.6,0,0,0,3.9-.3,12.1,12.1,0,0,0,3.7-1.1,9.9,9.9,0,0,0,2.4.3,18.4,18.4,0,0,0,3.3-.3,8.7,8.7,0,0,1,3.2-.3,19.5,19.5,0,0,1,4-1l4.1-.4,4.1-.6a18.2,18.2,0,0,0,4-1.1,7,7,0,0,0,2,.1l2.1-.2a4.9,4.9,0,0,1,1.8.5l2.6-1.1a9.7,9.7,0,0,1,2.8-.5h1.1a1.7,1.7,0,0,1,1,.3l.8-.3,1.3-.5,1.3-.4.8-.2q.6,0,.6.3c0,.3.1.4.3.4a7.5,7.5,0,0,0,2.6-.5,7.5,7.5,0,0,1,2.6-.5h1l1.1.2a3.1,3.1,0,0,1,.5,1A1.2,1.2,0,0,0,335.6,61.2Z" fill="#523c65"/><path d="M54.2,56.9l-1.4.4-1.2.5c.1,0,.1.1.1.2a1.2,1.2,0,0,1-.2.7c-.2.1-.2.4-.1.8a11.7,11.7,0,0,1-2.4.9l-2.5.6-2.6.5a9.4,9.4,0,0,0-2.3,1v-.8a4.1,4.1,0,0,1-1.8.5,4,4,0,0,1-1.5-.3l-1.5-.2-1,.3-1.2-.4-1.1-.8a1.6,1.6,0,0,1-1.1,1L31,62H29.5L28,61.7a10.1,10.1,0,0,1-2.3.4H23.4l-2.1.2a5.3,5.3,0,0,0-2,.5c-.2-.5-.6-.7-1.3-.7H16.1a1.5,1.5,0,0,1-1.2-.4.5.5,0,0,0-.3.5,1.1,1.1,0,0,1,0,.6,6.9,6.9,0,0,0-2.5-.4,7.5,7.5,0,0,0-2.1.2,6.8,6.8,0,0,1-2,.2H6.9L6,62.5l-.7.2c-.2.1-.3.3-.4.4l-.5.4a1.5,1.5,0,0,1-.8.2,1.3,1.3,0,0,1-1.1-.5,1.3,1.3,0,0,0-.9-.7,3.2,3.2,0,0,0-.3-1.4,11.2,11.2,0,0,0-.5-1.3L.2,58.6A5.9,5.9,0,0,1,0,57.2v-.5a1.1,1.1,0,0,0,.1-.5,5.7,5.7,0,0,1,3.1-2.3A13.6,13.6,0,0,1,7,53.3a2.3,2.3,0,0,1,1.3.3l1,.9c3.6-.5,7.3-.7,10.9-.9l10.9-.5,3.6-.3,3.6-.3.3-.2c0-.1.1-.3.1-.4s.1-.3.1-.4l.5-.2a1.1,1.1,0,0,1,1.1.6,1.7,1.7,0,0,0,1,.6l1.2-.5,1.5-.2,1.3-.3a3.5,3.5,0,0,0,1.2-.7c.4,0,.6,0,.7.3a.7.7,0,0,0,.4.5l.9-.2h1.9a11.2,11.2,0,0,0,1.8,2.8A12.6,12.6,0,0,1,54.2,56.9Z" fill="#523c65"/></svg>