<svg id="Layer_1" data-name="Layer 1" xmlns="http://www.w3.org/2000/svg" width="15.9cm" height="3.7cm" viewBox="0 0 450.6 105.6"><path d="M222.1,59.8a4.8,4.8,0,0,1,.5,1.8,12.9,12.9,0,0,1,.4,1.9,10.6,10.6,0,0,0,.4,1.9,2.4,2.4,0,0,0,1,1.4,1.4,1.4,0,0,1-.2.7l-.5.6-.5.5a.9.9,0,0,0-.3.7,6.8,6.8,0,0,0-.3,1.9,1.5,1.5,0,0,1-1,1.5v.8a3.4,3.4,0,0,1-.2,1.5,4.1,4.1,0,0,0-.2,1.6,28.6,28.6,0,0,0-2.2,3,12.6,12.6,0,0,0-1.3,3.4l-5.9,5.8-6.2,5.6c-2.1,1.8-4.2,3.5-6.5,5.2a61.2,61.2,0,0,1-6.9,4.3h-.5a5.3,5.3,0,0,0-2.8.6,12.7,12.7,0,0,1-2.6,1.1,11.4,11.4,0,0,0-2.8-.3h-3.9a8.8,8.8,0,0,1-2.4-.3l-2-.7-2-.7a7.3,7.3,0,0,0-2.1-.6,36.1,36.1,0,0,1-7.7-11.2,34,34,0,0,1-2.8-13.2,23.8,23.8,0,0,1,1-6.5,21.7,21.7,0,0,0,.7-5.7,36.4,36.4,0,0,0,2.5-5.7l2.1-5.9c.8-2,1.5-3.9,2.4-5.8a36,36,0,0,1,3.1-5.4,10.3,10.3,0,0,1,1.2-3.5l1.9-3.3a6.8,6.8,0,0,1,.7-3.2,8,8,0,0,0,.9-3.2,9.5,9.5,0,0,0,2-2.6,17.7,17.7,0,0,0,1.5-3.1c.5-1,1-2,1.6-3a8.2,8.2,0,0,1,2.5-2.4c.1-.4.1-.8.2-1.2a1.8,1.8,0,0,1,.3-1.1l1.7-1.8a14.3,14.3,0,0,0,1.4-2,9.4,9.4,0,0,1,1.4-1.9l1-.8,1-.7a1.2,1.2,0,0,0,.2-1,1.5,1.5,0,0,1,.3-1l.5-.4.5-.3a6.1,6.1,0,0,0,1.7-1.4,5.4,5.4,0,0,1,2-1l2-1.7a11.9,11.9,0,0,1,1.8-1.5,8.2,8.2,0,0,1,2-1.2,7.9,7.9,0,0,1,2.8-.4h1.2a13.3,13.3,0,0,1,4,7.2,7.9,7.9,0,0,0-1.4,2.3,18.9,18.9,0,0,1-1.1,2.5,12.3,12.3,0,0,0-2.5,1.4l-2.3,1.8a17,17,0,0,1-2.3,1.7,6.4,6.4,0,0,1-2.7.7l-2,1.7-2.8,2.5-2.7,2.5a13.5,13.5,0,0,0-1.5,1.7l-.4.7-.3.7-2,3.4c-1.1,2-2.3,3.9-3.5,5.8a47.5,47.5,0,0,0-3.1,5.9,19,19,0,0,0-1,2.8c-.3,1-.5,2-.8,3a3.6,3.6,0,0,1-.4.9,3.6,3.6,0,0,0-.4.9c-.6,1.1-1,2.1-1.4,3a8.8,8.8,0,0,0-.6,3.3c-1.3,2.9-2.5,5.8-3.6,8.8a54.7,54.7,0,0,0-2.6,9,8.9,8.9,0,0,1,.5,3.2c-.1,1-.1,2.1-.1,3.1a15.5,15.5,0,0,0,.3,3.3,9,9,0,0,0,.8,2.3c.3.7.7,1.4,1.1,2.2a20.9,20.9,0,0,1,1.3,2.6,20.3,20.3,0,0,1,2.1,2,13,13,0,0,1,1.8,2.3,13.3,13.3,0,0,0,6,1.5,14.5,14.5,0,0,0,4.5-.7,32,32,0,0,0,4.3-1.7,41.6,41.6,0,0,0,4.2-2.3l3.9-2.5a24.8,24.8,0,0,0,5.7-4.2,38.9,38.9,0,0,0,4.4-4.7c1.3-1.7,2.5-3.4,3.7-5.3l3.6-6.1a2.3,2.3,0,0,1,.3-.9l.4-1.2a11.7,11.7,0,0,1,.5-1.1,2.5,2.5,0,0,0,.2-.7c0-.4-.1-.7-.3-.8a.9.9,0,0,1-.3-.6,1.2,1.2,0,0,1,.3-.9l.8-.5.7-.5c.3-.2.4-.6.4-1.2m1.7-1.1-1.7,1.1h-2.1a2.5,2.5,0,0,1-1.6-.6l-.7.5-.8.7-.6.7-.6.3h-.6l-.5-.2a3.7,3.7,0,0,0-2.3.7l-2,.9h-1.1a4.7,4.7,0,0,0-1.7.3l-1.6.5a6.7,6.7,0,0,1-1.5.6,3.8,3.8,0,0,1-1.5.1L198,66.8h-.7l-1.3.3a2.6,2.6,0,0,0-1.6,1.1,2.7,2.7,0,0,0-2-.7,5.4,5.4,0,0,0-2.2.4,6.4,6.4,0,0,1-2.4.4h-.6a13.4,13.4,0,0,0-.7-1.8,3.4,3.4,0,0,0-1.2-1.2l-.3-1.7a8.1,8.1,0,0,1-.1-1.6,6.6,6.6,0,0,1,1.2-3.8l2.2-.6,2.2-.7,1.8.2H194c1.1,0,7.2-1.3,7.2-1.3,2-.4,3.9-1,5.8-1.5l5.4-1.6a19.9,19.9,0,0,1,5.5-1.1c1.2-.9,2.4-.8,4.2-1.1h1.6l7.8-2.6h.8l2.7-.3a8.6,8.6,0,0,1,2.8-.4H239l1.2-.3,1.3-.5a14.5,14.5,0,0,0,2.3,1.9,13.7,13.7,0,0,1,2.2,2c-.2.6-.3,1.3-.6,2.1a9.5,9.5,0,0,1-.9,2.1,7.3,7.3,0,0,1-1.4,1.6,3.1,3.1,0,0,1-2.1.7l-1.7-.2-1.8-.2-.8.3a1.2,1.2,0,0,1-.8.2h-1.3l-.9.2-1.3.3-1.3.3-.9.3a33.1,33.1,0,0,1-4.2,1.2,20.3,20.3,0,0,1-4.3.7" fill="#523c65"/><path d="M286.8,67a4.9,4.9,0,0,1-1,1.9,7,7,0,0,1-1.6,1.4,12.2,12.2,0,0,1-1.9,1.2l-2,1.1h-1a7,7,0,0,1-5-1.6,10.1,10.1,0,0,1-2.7-4,19,19,0,0,1-1.3-5.1c-.3-1.8-.7-3.4-1.1-4.9a9.3,9.3,0,0,0-1.6,1.8l-1.2,2.1c-.5.6-1,1.3-1.5,1.8a4.3,4.3,0,0,1-2.2,1.2,5.4,5.4,0,0,1-.5,1.1,3.5,3.5,0,0,0-.3,1.1,18.9,18.9,0,0,0-3.1,2.2L256,70.9l-2.9,2.5a11.6,11.6,0,0,1-3.2,2h-.3a3.4,3.4,0,0,0-1.7.5,4.7,4.7,0,0,1-1.7.4L245,76l-1-.6-1-.5a2.4,2.4,0,0,0-1.2,0,8.6,8.6,0,0,0-2.1-2.6,5.5,5.5,0,0,1-1.5-2.8,3.6,3.6,0,0,1-.2-1.4c-.1-.5-.1-1-.2-1.6s-.4-1.5-.7-2.3l-.6-2.5c.3-1.4.5-2.9.8-4.6s.5-3.4.8-5.1a33.6,33.6,0,0,1,1.4-4.8,14.9,14.9,0,0,1,2.3-3.9v-.6a5.9,5.9,0,0,1,.5-2.3,20,20,0,0,1,1-2.1,11.3,11.3,0,0,0,.9-2,3.6,3.6,0,0,0,.2-2.3l1.9-.8a7.6,7.6,0,0,1,2.1-.3,5.8,5.8,0,0,1,1.9.3c-.1.4.1.7.6.8v.2a16.5,16.5,0,0,1-.4,3.2,28.1,28.1,0,0,1-1,3.1c-.3,1-.7,2-1,3a20.3,20.3,0,0,0-.8,3.1l-.4.3-.2.5a.8.8,0,0,1-.2.4h-.5l-.9,5.4a25.1,25.1,0,0,0-.6,5.5,12.9,12.9,0,0,0,.4,3.3,14.2,14.2,0,0,0,1.1,3.3h.3a2,2,0,0,1,1.4.4l1.4.8,1.1-.5a.9.9,0,0,0,.5-.9,6.9,6.9,0,0,0,1.7-.5l1.3-1,1.1-1.1a3.6,3.6,0,0,1,1.5-.8,1.4,1.4,0,0,1,.2-.7l.5-.5a.5.5,0,0,0,.3-.5c.1-.1.1-.4.1-.8a2.6,2.6,0,0,0,1.4-.4l1-.9a7.6,7.6,0,0,1,.8-1.1,2.2,2.2,0,0,1,1-.9l1.5-3.1c.7-1.3,1.3-2.7,2-4.1s1.2-2.7,1.7-4a8.4,8.4,0,0,0,.7-2.9,1.4,1.4,0,0,0-.2-.7.9.9,0,0,1-.1-.7v-.2a10.8,10.8,0,0,0,1.1-1.8c.4-.6.7-1.2,1.1-1.7a10.1,10.1,0,0,1,1.3-1.6,5.4,5.4,0,0,1,1.8-1.1,22.7,22.7,0,0,0,2.5.6,10.2,10.2,0,0,1,2.5.6,25.7,25.7,0,0,0,.4,4.5,15.1,15.1,0,0,0,1,4.3v3.9c0,1,0,2.1.1,3.2a14.5,14.5,0,0,0,.5,3,5.4,5.4,0,0,0-.6,2.5,9.7,9.7,0,0,0,.6,3.4,31.8,31.8,0,0,1,.8,3.3,2.8,2.8,0,0,0,2.6,1.4h.7l.6-.3a17.1,17.1,0,0,0,1.1,1.4A6.8,6.8,0,0,0,286.8,67Z" fill="#523c65"/><path d="M354.1,21.3a6.4,6.4,0,0,1-1,1.8l-1.4,1.7a8.6,8.6,0,0,0-1,1.6,3.6,3.6,0,0,0-.3,2.1h-.8a2.9,2.9,0,0,0-1.9.6,5.5,5.5,0,0,1-1.7,1l-.4-.9a1.3,1.3,0,0,0-.7-.6l-3.8.6-3.7.5-1.7.4-1.8.5a1.6,1.6,0,0,1-1,.1h-1.1l-4,.2a9.5,9.5,0,0,0-3.9,1.3l-1.7-.3h-1.7a33.2,33.2,0,0,0-4.1.4,10.1,10.1,0,0,0-3.9,1.4l-.8-.3h-1.4a3.3,3.3,0,0,0,.1,1.4,2.4,2.4,0,0,0,1,1,5.8,5.8,0,0,0-.3,1.9,21.1,21.1,0,0,0,.2,2.6,24.5,24.5,0,0,1,.2,2.7,4.7,4.7,0,0,1-.4,2.3,16.4,16.4,0,0,1,.8,5c0,.6-.1,1.2-.1,1.8a12.1,12.1,0,0,0-.1,1.9,1.7,1.7,0,0,0,.6,1.4,1.7,1.7,0,0,1,.6,1.4,1.4,1.4,0,0,1-.2.6l2.1-.7a5.2,5.2,0,0,1,2.1-.4l1.2.2a4.1,4.1,0,0,1,1.1.7,1.9,1.9,0,0,0-.1.8c0,.3-.1.6-.1.9s.1,1.1.1,1.6a8.6,8.6,0,0,0,.1,1.6,10.1,10.1,0,0,1-1.4,2,4.3,4.3,0,0,0-1.2,2.2,3.5,3.5,0,0,0-2,.5l-1.7,1.1-1.6,1a2.5,2.5,0,0,1-1.7.6A2.8,2.8,0,0,1,308,69a2.3,2.3,0,0,1-.7-.7l-.4-.7a1.1,1.1,0,0,0-.9-.3,7,7,0,0,0-.6-1.9l-.9-1.7-1.1-1.8a13.4,13.4,0,0,1-.7-1.8,19.9,19.9,0,0,1-.4-4.2,9.8,9.8,0,0,0-.7-4.2,16.4,16.4,0,0,0,.2-2.2,17.7,17.7,0,0,0,.1-2.3c0-1.4,0-2.8-.1-4.3s-.1-2.9-.2-4.4a2.3,2.3,0,0,1-.6-1.6,9.9,9.9,0,0,1-.2-1.7c-.2-.2-.4-.3-.5-.5a.9.9,0,0,1-.4-.6l-.9-.2a3.6,3.6,0,0,0-1.9.5,2.2,2.2,0,0,1-1.3.6l-1.2-.2-1.1-.2c-.3,0-.5.1-.5.2s-.1.3-.3.4l-1.1.3-1.9.3-2.1.2h-1.2a2.6,2.6,0,0,1-1.9-.5l-1.6-1.1a1.8,1.8,0,0,0,.1-.6,1.5,1.5,0,0,0-.5-1.3,1.2,1.2,0,0,1-.4-.9,1.5,1.5,0,0,1,.6-1.3,1.9,1.9,0,0,0,.8-1.5,25.3,25.3,0,0,1,3.6-1.2L291,27l3.8-.5a26.6,26.6,0,0,0,3.8-1h2.1a24,24,0,0,0,4.6-.5,24.2,24.2,0,0,1,4.7-.5h1.3l1.2.2,6.2-1c2-.4,4.2-.7,6.3-.9l3.1-.3,3.1-.4.8-.2a1,1,0,0,0,.3-.8,3.7,3.7,0,0,0,1.5.3,7.5,7.5,0,0,0,2.6-.5,7.5,7.5,0,0,1,2.6-.5h1a.6.6,0,0,0,.6-.5c0-.3.2-.6.7-.7l1.6-.2,2.1-.2,2.1-.3a2.6,2.6,0,0,0,1.4-.6l.6-.8a2.1,2.1,0,0,1,2,1.2,4.9,4.9,0,0,1,.8,2.4,1.2,1.2,0,0,0,.9.3h1.3Z" fill="#523c65"/><path d="M434.2,61.2a3.7,3.7,0,0,1-1.2,2.1,5.3,5.3,0,0,1-2.1,1.1,10.5,10.5,0,0,1-2.4.6l-2.3.2-2,1.2a14,14,0,0,1-1.8,1.3q-6.7.9-13.5,2.1l-13.5,2.1a6.1,6.1,0,0,1-2.5.8l-3,.3-3.2.4a7.9,7.9,0,0,0-2.7,1,35.3,35.3,0,0,0-9.8,1.7l-1.8-.4h-3.1a1.7,1.7,0,0,0-1.3.7,5.6,5.6,0,0,0-4.4-1.1,15.4,15.4,0,0,1-3.7-2.3,7.6,7.6,0,0,1-2.4-3.6V67.5a3.2,3.2,0,0,0-1.1-1.4,1.2,1.2,0,0,1,.3-.9,1.3,1.3,0,0,0,.4-.9,2.5,2.5,0,0,1-.3-1.3,8.6,8.6,0,0,1,.5-2.7,4.7,4.7,0,0,0,.2-2.6,20.8,20.8,0,0,1,2.4-3.4l2.9-3.1c.9-1.1,1.9-2.1,2.9-3.1a41.9,41.9,0,0,0,2.6-3.3,8.7,8.7,0,0,0,2.7-1.4l2.4-2.1,2.3-2.1a7.2,7.2,0,0,1,2.7-1.6,2.2,2.2,0,0,1,.5-.8l.7-.7.8-.7a4.1,4.1,0,0,0,.5-.9h-.7a53.7,53.7,0,0,0-7,.4l-7,1-6.9,1.2c-2.3.4-4.6.8-6.9,1l-2.9,1.3-3.1,1.1a14.8,14.8,0,0,0-2.9,1.2,9.2,9.2,0,0,0-2.5,1.7h-.7a2.4,2.4,0,0,1-1.5-.4l-1.4-.5a15.5,15.5,0,0,0-.5-2.3,6.7,6.7,0,0,1-.4-2.4,4,4,0,0,1,.3-1.7,1.6,1.6,0,0,0,1.5-.7,5.3,5.3,0,0,1,1.3-1.3c.2.2.3.3.5.3a.9.9,0,0,0,.7-.3,2.7,2.7,0,0,1,.8-.7l1.1-.5a3.7,3.7,0,0,1,1.6-.2,14.4,14.4,0,0,1,4.4-1.5l4.5-.7a1.9,1.9,0,0,0,.9-.4l.6-.7h1.6a30.7,30.7,0,0,0,6.7-.5l6.6-1.3,6.7-1.2a31,31,0,0,1,6.8-.2,5.8,5.8,0,0,1,1.8-.4h1.8l2.7.2a13.1,13.1,0,0,1,2.8.9,5.1,5.1,0,0,1,2.1,1.7,4.2,4.2,0,0,1,.8,2.6,2.6,2.6,0,0,1-.4,1.5,5.5,5.5,0,0,1-.9,1.4l-1.2,1.2a5.7,5.7,0,0,0-1.1,1.1,15.6,15.6,0,0,0-1.6,2,10.7,10.7,0,0,1-1.8,1.9.8.8,0,0,0-.8.2,1.1,1.1,0,0,1-.8.3,2,2,0,0,0-1.2,1.7,30.5,30.5,0,0,0-4,2.1,8.6,8.6,0,0,0-3.2,3.1,35.5,35.5,0,0,0-3.1,2.3l-2.8,2.7c-.8,1-1.7,1.9-2.6,2.9a34.4,34.4,0,0,1-2.7,2.7,7.9,7.9,0,0,1-.5,2.2,18.9,18.9,0,0,1-.9,2.1,2,2,0,0,0,.6,1.5,2.2,2.2,0,0,1,.5,1.6l3.9.6,3.9.2a25.6,25.6,0,0,0,3.9-.3,12.1,12.1,0,0,0,3.7-1.1,8.8,8.8,0,0,0,2.4.3,18.4,18.4,0,0,0,3.3-.3,8.5,8.5,0,0,1,3.2-.3,18,18,0,0,1,4-1l4.1-.4,4.1-.6a18.2,18.2,0,0,0,4-1.1,6.9,6.9,0,0,0,2,.1l2-.2a4.9,4.9,0,0,1,1.9.5l2.6-1.1a9.2,9.2,0,0,1,2.8-.5h1.1a1.9,1.9,0,0,1,1,.3l.8-.3,1.3-.5,1.3-.4.8-.2q.6,0,.6.3c-.1.3.1.4.3.4a7.5,7.5,0,0,0,2.6-.5,7.5,7.5,0,0,1,2.6-.5h1l1.1.2a9.3,9.3,0,0,1,.5,1A1.2,1.2,0,0,0,434.2,61.2Z" fill="#523c65"/><path d="M17.8,83.9a3.3,3.3,0,0,1-.9,2.2l-1.5,2-2,.6-2.1.5-.8.6-1.3-.5A3.4,3.4,0,0,0,8,88.7a6.7,6.7,0,0,0-2.2-.4,2.8,2.8,0,0,1-2-.8A9,9,0,0,1,2,84.6,18.9,18.9,0,0,1,.8,80.8a25.7,25.7,0,0,1-.6-4C.1,75.5,0,74.4,0,73.4a41.9,41.9,0,0,1,.3-5,40.5,40.5,0,0,1,.9-4.8v-.4c0-.2.1-.5.1-.6V61.4c0-.1-.1-.2-.3-.4a23.8,23.8,0,0,0,1.5-5.2c.3-1.8.5-3.7.7-5.5l.6-5.5a51.7,51.7,0,0,1,1.1-5.4,3.4,3.4,0,0,1-.1-1,3.8,3.8,0,0,1-.1-1A12.7,12.7,0,0,1,5,34.6a8.6,8.6,0,0,0,.4-2.8,1.7,1.7,0,0,0,0-1v-1c0-2.3.1-4.5.3-6.7s.4-4.4.4-6.6A20.7,20.7,0,0,0,5.8,13a18.4,18.4,0,0,1-.3-3.3,7.1,7.1,0,0,1,.1-1.5,2.4,2.4,0,0,1,.5-1.4,6.5,6.5,0,0,1,4-1.2,4.3,4.3,0,0,1,2.9,1V7.7a1.7,1.7,0,0,1,.1.7v.3A.4.4,0,0,1,13,9a8.4,8.4,0,0,1,.8,2,15,15,0,0,1,.2,2.2c0,.6-.1,1.3-.1,1.9a13.4,13.4,0,0,0-.1,2,25.3,25.3,0,0,0,.1,2.8v2.8a58.5,58.5,0,0,1-.4,7.3c-.2,2.4-.4,4.9-.5,7.4a31.9,31.9,0,0,1-.8,6.2,59.7,59.7,0,0,0-.9,6.1v2.5a8.4,8.4,0,0,1-.7,3.5,11.6,11.6,0,0,0-.7,3.7,3.8,3.8,0,0,0,.3,1.6c-.3.9-.5,1.9-.8,3l-.6,3.5c-.2,1.2-.3,2.4-.4,3.6s-.2,2.2-.2,3.1a15.7,15.7,0,0,0,.5,3.7,10.9,10.9,0,0,0,1.5,3.5l1.9.2h2.2a6.5,6.5,0,0,1,2,.4,2.4,2.4,0,0,1,1.4,1.2c0,.1.1.2.1.3Z" fill="#523c65"/><path d="M45.2,24.9c0,.7-.1,1.1-.4,1.3s-.5.5-.6.9-.3,1.3-.5,2a13.3,13.3,0,0,1-.5,1.9,23.9,23.9,0,0,1-4.4,8.2c-1.8,2.4-3.9,4.7-6,7.1a7.8,7.8,0,0,1-2.1.2,3.3,3.3,0,0,1-1.7-.4,5.6,5.6,0,0,1-1.5-1,3.4,3.4,0,0,1-.1-1,3.7,3.7,0,0,1-.1-1.1V41.6a5.9,5.9,0,0,1,.2-1.4,2.1,2.1,0,0,1,.7-1.3,2.6,2.6,0,0,0,.6-1.5h.4a.5.5,0,0,0,.5-.3.7.7,0,0,1,.6-.1A42.1,42.1,0,0,0,36.2,24c-.2-.9-.5-1.7-.7-2.5a8.7,8.7,0,0,0-1-2.4,4.4,4.4,0,0,0,.6-1.6,4.9,4.9,0,0,1,.6-1.7,3.6,3.6,0,0,1,1-1.4,3.7,3.7,0,0,1,2.3-.6,6.5,6.5,0,0,1,2.9.7,12,12,0,0,1,2.6,1.8.7.7,0,0,0-.1.5,2,2,0,0,0,.4,1.4,2.3,2.3,0,0,1,.4,1.4,9.2,9.2,0,0,1-.1,1.6,4.1,4.1,0,0,0-.2,1.6,2.5,2.5,0,0,0,.2,1.2A3.4,3.4,0,0,1,45.2,24.9Z" fill="#523c65"/><path d="M125,70.2a5.4,5.4,0,0,0-.3,2.5,1,1,0,0,1-.5.4l-.6.2a.6.6,0,0,0-.5.3c-.2.1-.2.4-.1.7a16.6,16.6,0,0,0-4.9,1.1l-4.6,2a7.2,7.2,0,0,1-2-.9,4.4,4.4,0,0,0-2.1-.7c-.9-1.8-1.7-3.6-2.5-5.6a16.6,16.6,0,0,1-1.1-5.8,8.7,8.7,0,0,1,.8-4,35.5,35.5,0,0,1,.3-4.6l.9-4.4a35.8,35.8,0,0,0,.9-4.5,23.2,23.2,0,0,0,.4-4.6V40.6l-.4.4-.4.8-.3.8c-.1.2-.2.4-.3.4a7.3,7.3,0,0,0-2,2.6c-.5,1-1.1,1.9-1.6,2.8s-1.5,2.1-2.3,3.2a8.9,8.9,0,0,1-3,2.4h0a.8.8,0,0,1-.2.6c-.2.1-.2.3-.1.8a14.9,14.9,0,0,0-3.6,1.7,10,10,0,0,0-2.8,3l-2.9,1-2.7,1.5a5,5,0,0,0-1.4.8,3.5,3.5,0,0,1-1.4.6l-1.6.3H76a1.6,1.6,0,0,1-1-.4l-1.4-.8-1.5-.9a4.7,4.7,0,0,0-1.5-.6,14.9,14.9,0,0,0-1.7-3.6l-2.4-3.2a27.9,27.9,0,0,0-1-3.9,6.6,6.6,0,0,0-2.3-3.3,2.8,2.8,0,0,0,.4-1.3,4.2,4.2,0,0,0-.4-1.6,3.3,3.3,0,0,1-.4-1.7,3.1,3.1,0,0,1,.1-1,5.5,5.5,0,0,0-1.2,2.4,8.7,8.7,0,0,0-.4,2.6,8.8,8.8,0,0,0,.2,1.7,5.4,5.4,0,0,0-.9,2.7,15.7,15.7,0,0,0-.2,2.9,28.3,28.3,0,0,0,.2,3,4.5,4.5,0,0,0-1.2,3.1,3.3,3.3,0,0,0,.4,1.7c0,.3,0,.4-.1.5a62939718189021.3,62939718189021.3,0,0,1-.8.4.7.7,0,0,0-.1.5v4a17.7,17.7,0,0,0-.1,2.3,8.5,8.5,0,0,0,.4,3.2,3.1,3.1,0,0,0,1.1,1.4l1.4.9a4.8,4.8,0,0,1,1.6,1.8,2.4,2.4,0,0,1-.8,1.1l-1.1.9a2.8,2.8,0,0,0-.9,1,1.8,1.8,0,0,0-.3,1.5h-.4a6.9,6.9,0,0,0-2,.3,5.8,5.8,0,0,1-1.9.3h-.9l-.8-.5a1.2,1.2,0,0,0-.8-.2h-1a54,54,0,0,1-1.7-7.2,61.1,61.1,0,0,1-.5-7.3,1.3,1.3,0,0,1,.2-.8c.1-.3.3-.4.5-.3V64.9a23.4,23.4,0,0,1,.5-4.7,38.8,38.8,0,0,0,.4-4.8V54c-.1-.5-.1-.9-.2-1.3a27.6,27.6,0,0,0,.8-2.7,9.2,9.2,0,0,0,.5-2.8,4.4,4.4,0,0,0-.3-1.5,2.3,2.3,0,0,0,1-1.2,8.5,8.5,0,0,0,.4-1.7l.3-1.7c0-.6.1-1.1.1-1.6a9,9,0,0,0,.9-3.3,7.3,7.3,0,0,1,.8-3.3,3.1,3.1,0,0,1-.1-1.1,9.3,9.3,0,0,1,.5-3.2,4.2,4.2,0,0,1,2-2.4,8.8,8.8,0,0,0,3.3.5,9.7,9.7,0,0,0,3.4-.5l.9.3.8.4a1.6,1.6,0,0,0,.9.3h1.1c.5,1.5.9,3,1.3,4.6a35.5,35.5,0,0,1,.9,4.7,7.9,7.9,0,0,1,.1,2.2,14.1,14.1,0,0,0,.1,2.1,4.2,4.2,0,0,0,.4,1.2l.7,1.1c.2.4.3.9.5,1.4a10.9,10.9,0,0,1,.1,1.9,23.5,23.5,0,0,0,1.9,3.9A36.1,36.1,0,0,0,77.1,54a3.4,3.4,0,0,1,1.2.6,1.4,1.4,0,0,1,.7,1.1l1.2.2,1.4.4A20.5,20.5,0,0,0,87,53.8a33.6,33.6,0,0,1,5.4-2.6,42.6,42.6,0,0,0,5.9-7.4l4.9-8.1V34l.8-.6a2,2,0,0,1,.9-.5,5.3,5.3,0,0,1,.5-1.8,13.4,13.4,0,0,1,.7-1.8,8,8,0,0,0,.8-1.6,4.7,4.7,0,0,0,.3-1.7,3.1,3.1,0,0,0-.1-1,4.1,4.1,0,0,1,2.8-1.1,7,7,0,0,1,3.1.7l3,1.4a16.3,16.3,0,0,1,1.3,3.9,30.3,30.3,0,0,1,.6,4.2c.1,1.5.1,2.9.1,4.4V44a1,1,0,0,1-.4.9,1.2,1.2,0,0,0-.5.8v.8a1.7,1.7,0,0,1-.1.7,13.2,13.2,0,0,1-.4,3.4,37.3,37.3,0,0,1-.9,4.6,18.2,18.2,0,0,0-.6,4.6,9.7,9.7,0,0,0,.1,1.7,4.7,4.7,0,0,0,.3,1.7,3.4,3.4,0,0,0-.4,1.8,5.9,5.9,0,0,0,.4,2.3,21.2,21.2,0,0,0,1.1,2.1H121l2,.2A6.4,6.4,0,0,1,125,70.2Z" fill="#523c65"/><path d="M450.6,69.9a5.4,5.4,0,0,1-.4,2.2,20,20,0,0,1-1,2.1l-1.1,2a18,18,0,0,0-.8,2.1H447a6.6,6.6,0,0,0-2.1.3l-2.1.6-2,.6a7.6,7.6,0,0,1-2.1.3,6.8,6.8,0,0,0-.7-2,1.9,1.9,0,0,0-1.8-.8,3.1,3.1,0,0,1-.3-1.3V74.5a5.9,5.9,0,0,0-.2-1.3,3.3,3.3,0,0,0-.4-1.3,9.6,9.6,0,0,0,2.3-2.6l2.1-2.7,2,.2a9.1,9.1,0,0,0,2.3-.3l2.3-.3a5.1,5.1,0,0,1,2.4.7l.3.8a2.9,2.9,0,0,0,.2.9l.5.8a1.2,1.2,0,0,0,.9.3Z" fill="#523c65"/></svg>