<svg xmlns="http://www.w3.org/2000/svg" width="64" height="64" viewBox="0 0 64 64"><path fill="#010101" d="M46.6 16l17.6 31.3c.3.7.3.7-.4.7h-9.7c-.5 0-.7-.2-.6-.7s0-1 1-1h7.1l-15-26.8-7.3 12.9L32 19.5l-7.2 12.9-7.3-12.9L2.4 46.3h7.8c.3-.1.4 0 .5.4s0 1.3-1.3 1.3H-.4a1.4 1.4 0 0 1 .2-.7l17.4-30.8c.1-.2.2-.3.2-.5h.2a5.4 5.4 0 0 1 1 1.6l5.9 10.5c.1.1.1.3.3.3s1.1-1.9 1.6-2.8c1.7-3 3.4-5.9 5-8.9.2-.2.3-.5.6-.7h.2a21.7 21.7 0 0 1 1.9 3.3l4.6 8.2a6.7 6.7 0 0 1 .6 1.2l6.6-11.8a2.4 2.4 0 0 1 .6-.9z"/><path fill="#010101" d="M47 46.1l-5.6-9.9c-.5-.9-1-1.9-1.6-2.8a1 1 0 0 1 0-.9l6.8-12c4.7 8.4 9.4 16.8 14.2 25.2h-6.4c-.9 0-.9 0-.9-.9s.1-.8.7-.8h3.6c-3.8-6.6-7.5-13.2-11.2-19.9l-2.4 4.2c-.8 1.4-1.5 2.8-2.3 4.1a.8.8 0 0 0 0 1.1l7.8 14 .3.4H14.2c-.1-.2.1-.4.2-.6l7.8-13.8c.1-.3.3-.5.2-.8-1.7-2.8-3.3-5.7-4.9-8.6C13.8 30.7 10 37.3 6.3 44h3.4c.3 0 .8-.1.9.1a7.5 7.5 0 0 1 0 1.5c0 .2-.2.1-.4.1H3.3l14.2-25.2 1.6 2.9 5.1 9a.9.9 0 0 1 0 1l-6.8 12.1a1.6 1.6 0 0 0-.3.6z"/><path fill="#231f20" d="M38.8 32.5c-2.2-4-4.5-7.9-6.7-12-.1.2-.2.2-.2.3-2.2 3.9-4.4 7.9-6.7 11.8-.2.3 0 .5.1.8l6.5 11.4c.1.2.1.4.3.4l6.7-11.9a.6.6 0 0 0 0-.8zm-2.2 1.3l-4.6 8c-.9-1.7-1.8-3.2-2.7-4.8l-2-3.7c-.2-.2-.3-.4-.1-.6l4.7-8.4h.2l4.5 8a1.5 1.5 0 0 1 0 1.5zm2.7-.4l-6.9 12.3h13.8zm0 3.6l3.9 7h-7.8zm-14.5-3.6l-6.7 11.9c-.3.6.2.4.4.4h12.7c.2 0 .3.1.4-.2zM20.9 44c1.3-2.4 2.5-4.6 3.9-7l3.9 7z"/></svg>