<svg xmlns="http://www.w3.org/2000/svg" width="644.7" height="149.6" viewBox="0 0 644.7 149.6"><defs><clipPath id="a"><path fill="none" d="M208.4 39.9h436.1v71.18H208.4z"/></clipPath></defs><g fill="#231f20" clip-path="url(#a)"><path d="M256 80.6a3.3 3.3 0 0 1-.3 1.5l-.7 1.3c0-.1-.1-.1-.2-.1l-.5.2-.5.2-2.6 2.8a13.3 13.3 0 0 1-3 2.3l-.9.6-1 .4-.3.2h-.3l-.7.6-.7.9-.9.7a2.2 2.2 0 0 1-1.1.2l-.6.6a4.6 4.6 0 0 1-.7.7 19.2 19.2 0 0 0-3.5 1.8l-3.3 2.1a13.6 13.6 0 0 1-2 1.1h-.6l-.6.2-2.9.5a16.3 16.3 0 0 1-3.1.3 14.9 14.9 0 0 1-3.6-.5c0-.1 0-.1-.1-.2h-.4c-.1 0-.1-.1 0-.2a4.2 4.2 0 0 1-1.7-.5 2.4 2.4 0 0 1-1-1.4l-.2.2h-.3a11.5 11.5 0 0 0-1.4-1.7 4.2 4.2 0 0 1-1.1-1.8.8.8 0 0 1-.1-.4.9.9 0 0 1-.1-.5c-.2-.4-.4-.6-.8-.6s.1-.3.1-.4v-.3a.4.4 0 0 1-.1-.3.8.8 0 0 1 .2-.4 17.2 17.2 0 0 1-.7-2.1 13.4 13.4 0 0 1-.1-2.1 24.4 24.4 0 0 1 .1-2.7 25.3 25.3 0 0 0 .1-2.8 7.3 7.3 0 0 0 .5-1.2 2.2 2.2 0 0 1 .5-1.2c0-.2-.1-.3-.2-.3s-.1-.1-.1-.2a6.2 6.2 0 0 1 .3-1.8 5.8 5.8 0 0 0 .3-1.9c.3-.2.5-.4.5-.7a1.8 1.8 0 0 1 .5-.7v-.2a6.8 6.8 0 0 1 .2-1.4l.3-1.3.3-1.3v-1.2c.1 0 .2-.2.3-.5l.3-.8a2.4 2.4 0 0 0 .2-.8l.2-.6c0-.2-.1-.3-.1-.5a.7.7 0 0 1-.1-.5 1.8 1.8 0 0 1 .1-.6 2.5 2.5 0 0 0 .2-.7 9.4 9.4 0 0 0 .4-1.6l.3-1.6c.2-1.6.4-3.3.5-5s.2-3.3.3-5l1.3-.6a3.7 3.7 0 0 1 1.5-.3h.8a3.6 3.6 0 0 0 .8 1.5 7.3 7.3 0 0 1 .9 1.3 6.6 6.6 0 0 0-.4 1.5v1.5c-.1.5-.1 1-.2 1.5a7.8 7.8 0 0 1-.5 1.4.6.6 0 0 1 .1.4v.5a4.9 4.9 0 0 1-.1 1.2c-.1.4-.1.8-.2 1.2l-.3 1.2v1.1a.5.5 0 0 1-.2.4c-.1 0-.2.2-.2.3v.9a2.8 2.8 0 0 0-.1.9c-.1.3-.1.7-.2 1a26.8 26.8 0 0 1-.7 2.7 8.6 8.6 0 0 0-.4 2.8v.2a5.9 5.9 0 0 0-.6 1.6 3 3 0 0 0-.1 1.6c-.4.9-.7 1.8-1 2.6a7.5 7.5 0 0 0-.4 2.6v.6a.6.6 0 0 0 .1.4 5.9 5.9 0 0 0-.5 1.9c0 .6-.1 1.2-.1 1.8a7.1 7.1 0 0 0 .1 1.4 8.8 8.8 0 0 0 .2 1.7 8.5 8.5 0 0 0 .4 1.7 3.2 3.2 0 0 0 .5 1.3 7.5 7.5 0 0 0 2.7 2.6 9.2 9.2 0 0 0 3.6 1.3l1.2-.3h1.3a4.7 4.7 0 0 1 1.5-.6l1.5-.4.4-.2h.5l.5-.4c.1-.3.3-.4.5-.6l1.7-.7 1.7-1 1.7-1a7.5 7.5 0 0 1 1.8-.8l.4-.4a1.4 1.4 0 0 1 .2-.6h.3a.8.8 0 0 0 .8-.4l.5-.7a2 2 0 0 0 1.1-.3 1.6 1.6 0 0 0 .8-.8 4.4 4.4 0 0 0 2-.8l1.7-1.3 1.6-1.3a7.8 7.8 0 0 1 1.8-1.1.5.5 0 0 0 .2-.4c0-.1.1-.2.1-.4a2.1 2.1 0 0 0 1.2-.4l1.1-.7a2.5 2.5 0 0 1 1.8 1.1"/><path d="M261.2 84.8l-.5.6a3.4 3.4 0 0 0-.6.6l-.7.2H258l-.4.2a.6.6 0 0 1-.6-.3.6.6 0 0 0-.6-.3h-.4l-1.2-1.6-1-1.6-.3-3.4c0-.3-.1-.5-.1-.8a2.4 2.4 0 0 1-.2-.8 2.2 2.2 0 0 1 .1-.8c0-.3.1-.6.1-.8s.3-1.7.4-2.6a21.7 21.7 0 0 0 .4-2.5 19.5 19.5 0 0 0 .2-2.5 10 10 0 0 0-.4-2.4v-.2a1.4 1.4 0 0 0 .2-.6 1.1 1.1 0 0 0 .2-.6.6.6 0 0 0-.2-.7c.1-.2.2-.4.4-.4a.9.9 0 0 0 .4-.6v-.3l.7-.3h.8l1 .4.8.6a11.9 11.9 0 0 1 .6 4.6c-.1 1.6-.2 3.2-.4 4.8a38.9 38.9 0 0 0-.4 4.7 8.7 8.7 0 0 0 .7 4.3h.1l.3-.2c.1-.1.2-.2.4-.1h.2a4.9 4.9 0 0 0 .6 1.7l.9 1.7m41.2-22.9a.5.5 0 0 1-.3.5l-.5.4-.6.4a1 1 0 0 0-.4.5h-.4c-.2 0-.2.1-.2.2h-.2a.5.5 0 0 1-.5-.3.8.8 0 0 0-.6-.2h-4.4c-2.1 0-4.1 0-6.1.2a17.4 17.4 0 0 0-5.9 1.3h-.2c-.2 0-.3-.1-.3-.2a.2.2 0 0 0-.2-.2l-1.2.2-1.2.2a6.2 6.2 0 0 1-1.6 1l-1.9.8-1.8.8a4.6 4.6 0 0 0-1.6 1.1c.1.3.1.7.2 1v1a23.4 23.4 0 0 1-.3 3.8 16.4 16.4 0 0 0-.4 3.8v.6a1.7 1.7 0 0 0 .1.7.3.3 0 0 0 .3.3l.4.2 1.2-.6 1.3-.5 1.2-.5 1.2-.6h1.3a2.4 2.4 0 0 1 1.1-.6 1.1 1.1 0 0 0 .9-.8h.4l1.1-.2 1.1-.5 1.2-.5 1.2-.2h.5a1.6 1.6 0 0 1 .7-.7l1.1-.5 1.1-.3.9-.5h.6l.4.2a5.2 5.2 0 0 1 2.6-.8h2.8l.5.8a1.7 1.7 0 0 1 .3 1 1 1 0 0 1-.1.4l-.7.4-.5.2-.6.2h-.9c-.2 0-.3 0-.3.2s0 .2-.2.2l-1.3.4a5.3 5.3 0 0 0-1.2.3l-2.6.9a11.1 11.1 0 0 1-2.6.7A15.8 15.8 0 0 1 284 80a14.3 14.3 0 0 1-2.7.9l-2.9 2a16.6 16.6 0 0 1-3.3 1.5l-.5.5a.7.7 0 0 0-.4.5h-.5a1.2 1.2 0 0 0-.9.3 1.2 1.2 0 0 1-.8.4 3.5 3.5 0 0 0-.3 1.2 2 2 0 0 0 .3 1.1 4.1 4.1 0 0 0 .5.9l.7.9.7.9a1.9 1.9 0 0 1-.4.9l-.5.6-.6.6a1.2 1.2 0 0 0-.4.8l-1.6.2h-1l-1-.4a6.7 6.7 0 0 1-1-2.1 20.9 20.9 0 0 0-.8-2.3v-.3a3.3 3.3 0 0 0-.4-1.7 4.4 4.4 0 0 0-1-1.5c0-.1.1-.2.1-.3a2.1 2.1 0 0 0-.4-1.1 3.4 3.4 0 0 1 .6-1.6l1-1.3v-.5a15.8 15.8 0 0 1 .4-3.8 24.3 24.3 0 0 0 .3-3.8 12.3 12.3 0 0 0-.2-2h-.7l-.2.3c-.1.1-.2.2-.2.3h-.4a1.3 1.3 0 0 1-1-.7 5.1 5.1 0 0 1-.2-1.3 2.2 2.2 0 0 1 .1-.8 2.2 2.2 0 0 1 .1-.8 19.3 19.3 0 0 1 4-3.5 24.7 24.7 0 0 1 4.7-2.6h1.2a.6.6 0 0 0 .6-.3c.2-.2.3-.4.5-.5l.6.2a1.8 1.8 0 0 0 .9-.4 1.4 1.4 0 0 1 .9-.5l4.1-.6a14.7 14.7 0 0 0 4-1l.9.2h2a1.9 1.9 0 0 0 .9-.5h6.4a15.4 15.4 0 0 1 3.1.5 6.8 6.8 0 0 1 2.7 1.3c.1.2.1.4.2.6a.8.8 0 0 1 .2.5"/><path d="M328.2 62.4v.2c-.2 0-.3.2-.3.4l-1 .4a2 2 0 0 0-1.1.3h-7.4l-1.3.6-1.5.2-.9-.2a9.2 9.2 0 0 1-2.3.9l-2.6.7-2.5.8a7.2 7.2 0 0 0-2.1 1.2 4.9 4.9 0 0 0-.1 1.2 7.2 7.2 0 0 0 0 2.4 1.9 1.9 0 0 0 .3 1l.5.2h1q.2 0 .3-.3h4l1.3-.3 1.4-.2h2.7l1.5-.5 1.2.2h1.2l.5.5a1.4 1.4 0 0 1 .2.6 2.2 2.2 0 0 1-.4 1.3l-.8 1.1h-.5a6.4 6.4 0 0 0-2 .3l-2.1.7-2 .7a6.6 6.6 0 0 1-2.1.3c-.1 0-.1 0-.2.2a.4.4 0 0 1-.1.3h-.6l-2 .2a6.3 6.3 0 0 1-1.9.3h-1.1l-.6.5-.7.3a3.1 3.1 0 0 0-.1 1c0 .4-.1.8-.1 1.2a3.7 3.7 0 0 1-.1 1.1 1.9 1.9 0 0 1-.3.9c0 .1.1.2.3.2s.3 0 .3.2a2.8 2.8 0 0 1-.1.9v.9a6.5 6.5 0 0 0 .2 1.9 6.4 6.4 0 0 0 .6 1.8 3.1 3.1 0 0 0 1.1 1.4 2.8 2.8 0 0 0 1.8.6 3.5 3.5 0 0 0 1.4-.3 2.8 2.8 0 0 0 1-.9h.9c.2 0 .4-.1.7-.4l.9-.8 1.1-.8a2.7 2.7 0 0 1 1-.6l.6-1.3a2.8 2.8 0 0 1 .9-1v-1.6l.9-.9a1.6 1.6 0 0 0 .8-1h1.8a2.4 2.4 0 0 1 .6 1.1 3.7 3.7 0 0 0 .5 1.1 19.5 19.5 0 0 0-.9 2l-1.2 2.2a19.3 19.3 0 0 1-1.3 2.1 7.6 7.6 0 0 1-1.4 1.6l-.6.3-.9.7-.7.8a8 8 0 0 0-2.5 1.1l-2.4 1.3-1.1-.2h-2.3a.5.5 0 0 0-.5-.3c-.2-.1-.3-.2-.2-.5a4.4 4.4 0 0 1-2.5-.8 6 6 0 0 1-1.6-1.9 12.3 12.3 0 0 1-1.1-2.3 22.5 22.5 0 0 0-.8-2.4c0-.2.1-.3.2-.3s.2-.1.2-.3h-.1a2.9 2.9 0 0 1-.2-.9 1.9 1.9 0 0 1-.1-.8 6.1 6.1 0 0 1 .1-1.4c0-.5.1-1 .1-1.4a5.1 5.1 0 0 0-.2-1.3l.3-.6a2.2 2.2 0 0 0 .1-.8 2.2 2.2 0 0 0 .1-.8c0-.3.1-.5.1-.7l-.3-.9a2.2 2.2 0 0 1-.1-.9v-.3a7.7 7.7 0 0 0 .7-1.6l.7-1.6v-.2a23.5 23.5 0 0 0-.1-2.6c0-.8-.1-1.7-.1-2.6v-.8a2.8 2.8 0 0 1 .1-.9l.5-.5c.1-.2.3-.3.6-.5h1.4l.3-.4.2-.5.9-.4a2.6 2.6 0 0 0 .9-.5 6.7 6.7 0 0 1 1.2-.6 3.1 3.1 0 0 1 1-.5l1.1-.4 1.3-.2h.5l.3-.4 1.1.2h1.1a6.5 6.5 0 0 0 2-.4h7.7l2.3.3.9-.2 1 .2h1.1l.3.8a1.9 1.9 0 0 1 .2.8m54.4-.1h-.4c-.1 0-.1 0-.1.1a1.1 1.1 0 0 1 .1.5 1.4 1.4 0 0 1-.3.9c-.3.3-.4.5-.4.7l.2.2h.2l-.4.6a1 1 0 0 1-.4.5 29.1 29.1 0 0 0 .4 3.1 15.3 15.3 0 0 1 .3 3 7.7 7.7 0 0 1-.2 1.5l-.3 1.5-.3 1.5a7.7 7.7 0 0 0-.2 1.5l-1.2 2.2a6.7 6.7 0 0 0-1 2.3 6.9 6.9 0 0 0-1.8 1.6l-1.5 1.8a9.2 9.2 0 0 0-2.8 1.4h-.8a5.4 5.4 0 0 1-2.9-.7 6.5 6.5 0 0 1-2.1-1.6 9.1 9.1 0 0 1-1.5-2.3l-1.2-2.5a14.5 14.5 0 0 0-1.8 1.7l-1.7 1.9-.6.9-.8.7h-.4l-.4.2a5.2 5.2 0 0 0-2 1.9l-1.7.8-1.6.9-1.7.2h-3.4l-.8-.4-.6-.6c-.1-.3-.5-.5-1-.8l-.5-1.2a3.1 3.1 0 0 0-.5-1v-.7a1.7 1.7 0 0 0-.1-.7 1.5 1.5 0 0 0-.1-.7 1 1 0 0 0-.5-.4 16.5 16.5 0 0 1 .4-3.2c.3-1.1.5-2.2.7-3.3a6.3 6.3 0 0 0 .3-1.9v-.5c0-.2.1-.4.1-.6l.3-.4a.6.6 0 0 0 .3-.6 2.8 2.8 0 0 0 .3-1.3c0-.6.1-1 .1-1.5l.6-2.7a25 25 0 0 1 .7-2.6.8.8 0 0 1-.1-.4v-.5a18.4 18.4 0 0 1 .3-3.3c.1-1.1.2-2.2.2-3.3a10.3 10.3 0 0 0-.1-1.7 2.2 2.2 0 0 1 .5-.8 1.2 1.2 0 0 1 .8-.6l1.8 1 1.8 1.3v1a27.2 27.2 0 0 1-.1 2.8 28.3 28.3 0 0 1-.2 2.9 24.7 24.7 0 0 1-.6 2.9 9.2 9.2 0 0 1-.8 2.5v1.5a9.8 9.8 0 0 0-1.1 3l-.6 3.1c-.1.3-.2.7-.4 1.2a5.2 5.2 0 0 0-.2 1.1v.5a.6.6 0 0 1 .1.4 5.7 5.7 0 0 0-.3 1.8 11.3 11.3 0 0 1-.3 1.8 7.5 7.5 0 0 1 .7 1.2l.6 1.3h3.1a1.6 1.6 0 0 1 .7-.7l.9-.6.9-.5a1.6 1.6 0 0 0 .7-.7h.6l.4-.4.4-.4.4-.5a.4.4 0 0 0 .1-.3l.9-.6a6 6 0 0 1 .8-.8l.7-.9a2.4 2.4 0 0 1 .8-.6v-.3a1.4 1.4 0 0 1 .2-.6c.2-.1.2-.4.2-.8h.4l.2-.3v-.3a.5.5 0 0 1 .4-.2 4.1 4.1 0 0 1 .3-1.6 3.3 3.3 0 0 0 .4-1.5v-.4c0-.1-.1-.3-.1-.4a3.7 3.7 0 0 0 .5-1.1 4.5 4.5 0 0 0 .1-1.2c0-.4.1-.8.1-1.2a2.7 2.7 0 0 1 .3-1.2.9.9 0 0 0-.3-.7l.6-.7.6-.6h.1a1.6 1.6 0 0 1 .9.3l.7.5.7.6a2 2 0 0 0 .8.4v1a1.3 1.3 0 0 1 .7.6 21.8 21.8 0 0 0-.1 2.5V73c0 1.2 0 2.4.1 3.6a19.7 19.7 0 0 0 .4 3.5l1 1a2.8 2.8 0 0 1 .8.9h.5a3 3 0 0 0 2.5-1 8.4 8.4 0 0 0 1.2-2.3 2.8 2.8 0 0 0 1-.9 6.1 6.1 0 0 0 .5-1.2c.1-.5.3-.9.4-1.4a2.2 2.2 0 0 1 .5-1.2v-2.2c0-1.8-.1-3.5-.2-5.2a43.6 43.6 0 0 1-.3-5.1l-.3-.9v-1a2.9 2.9 0 0 0-.2-.9 1 1 0 0 0-.5-.6 6.1 6.1 0 0 0 0-2.2 5 5 0 0 0-.2-1.2l.6-.6a.8.8 0 0 1 .7-.4l.6.2.5.4.4.4a.7.7 0 0 0 .6.2h.5a3 3 0 0 1 .7 1.1l.6 1.4a8.8 8.8 0 0 0 .5 1.5 8.3 8.3 0 0 0 .7 1.3v.4a2.8 2.8 0 0 0 .1.9l.3.8m12.4 22.5l-.5.6-.6.6-.7.2h-1.4l-.4.2a.7.7 0 0 1-.6-.3.6.6 0 0 0-.6-.3h-.3a10.1 10.1 0 0 1-1.3-1.6l-1-1.6-.3-3.4c0-.3-.1-.5-.1-.8s-.1-.5-.2-.8.1-.5.1-.8.1-.6.1-.8.3-1.7.4-2.6a21.7 21.7 0 0 0 .4-2.5 19.5 19.5 0 0 0 .2-2.5 6.7 6.7 0 0 0-.4-2.4v-.2a1.4 1.4 0 0 0 .2-.6 1.1 1.1 0 0 0 .2-.6.6.6 0 0 0-.2-.7c.1-.2.2-.4.4-.4a.7.7 0 0 0 .4-.6v-.3l.7-.3h.8l1 .4.8.6a11.9 11.9 0 0 1 .6 4.6c-.1 1.6-.2 3.2-.4 4.8a38.9 38.9 0 0 0-.4 4.7 10 10 0 0 0 .7 4.3h.1l.3-.2c.1-.1.3-.2.4-.1h.2a4.9 4.9 0 0 0 .6 1.7l.9 1.7M438 62.1l-.6 1.1-.8.9-.6 1a2.2 2.2 0 0 0-.2 1.2h-.4a1.8 1.8 0 0 0-1.1.3 2.1 2.1 0 0 1-1 .6l-.2-.5a.5.5 0 0 0-.4-.3l-2.2.3-2.1.3-1 .2-1.1.3h-1.2l-2.3.2a4.1 4.1 0 0 0-2.2.7l-1-.2h-1a9.3 9.3 0 0 0-2.3.2 5.7 5.7 0 0 0-2.3.8l-.5-.2h-.8a1.9 1.9 0 0 0 .1.8.9.9 0 0 0 .6.6 3.6 3.6 0 0 0-.2 1.1 7.6 7.6 0 0 0 .1 1.5 7.6 7.6 0 0 1 .1 1.5 2.8 2.8 0 0 1-.2 1.4 8.8 8.8 0 0 1 .5 2.9c0 .3-.1.7-.1 1a4.1 4.1 0 0 0-.1 1.1.9.9 0 0 0 .4.8 1 1 0 0 1 .3.8v.3l1.2-.3a2.7 2.7 0 0 1 1.2-.3h.7l.6.4a.7.7 0 0 0-.1.5v1.4a3.8 3.8 0 0 0 .1 1 4.8 4.8 0 0 1-.9 1.1 2.3 2.3 0 0 0-.6 1.2 2.1 2.1 0 0 0-1.2.3l-1 .7-.9.6a1.6 1.6 0 0 1-.9.3 2.2 2.2 0 0 1-1-.2l-.4-.4c-.1-.2-.2-.3-.2-.5h-.5a4.9 4.9 0 0 0-.4-1.1 4.7 4.7 0 0 0-.5-1l-.6-1a3.6 3.6 0 0 1-.4-1.1 8.8 8.8 0 0 1-.3-2.4 5.1 5.1 0 0 0-.4-2.4c.1-.4.1-.8.2-1.3v-3.7c-.1-.9-.1-1.7-.2-2.6a1.2 1.2 0 0 1-.3-.9 3.4 3.4 0 0 1-.1-1l-.3-.3-.2-.3h-.6a1.7 1.7 0 0 0-1 .3l-.8.3h-1.3c-.2 0-.3 0-.3.1l-.2.2-.6.2h-1.1l-1.2.2h-.7a1.6 1.6 0 0 1-1.1-.3l-1-.6a.8.8 0 0 0 .1-.4 1.4 1.4 0 0 0-.2-.7.9.9 0 0 1-.3-.6.8.8 0 0 1 .4-.7 1.3 1.3 0 0 0 .4-.9 8.3 8.3 0 0 1 2.1-.6l2.2-.4 2.2-.3a7.9 7.9 0 0 0 2.2-.6h1.2a12.4 12.4 0 0 0 2.7-.3 12.4 12.4 0 0 1 2.7-.3h1.4l3.6-.6 3.6-.5 1.8-.2 1.8-.2h.4a.8.8 0 0 0 .2-.5l.9.2a4 4 0 0 0 1.5-.3 3.7 3.7 0 0 1 1.5-.3h.5c.2 0 .4-.1.4-.3s.1-.3.4-.4h2.1l1.2-.2a1.9 1.9 0 0 0 .9-.4l.3-.5a1.9 1.9 0 0 1 1.2.7 3.7 3.7 0 0 1 .4 1.4c.1.2.3.2.5.2h.8z"/><path d="M459.6 70l-.3.8-.3.9-.7.4-.8.2-.7.2c-.2.2-.4.3-.5.5a6.9 6.9 0 0 0-.2 1.3 2.8 2.8 0 0 0 .3 1.3c-.1.2-.1.5-.2.8v.9a14.3 14.3 0 0 0 .3 2.9 16 16 0 0 1 .5 2.9 4.3 4.3 0 0 1-.1.5v.5c0 .7.2 1.1.7 1.3l-.2.4c0 .2.1.4.1.6a1.3 1.3 0 0 1 .1.6 5.9 5.9 0 0 0 .4.8 1.1 1.1 0 0 1 .3.8 7.5 7.5 0 0 1-.7 1.2 2.3 2.3 0 0 0-.6 1.2h-.9c-.2.1-.3.2-.3.4l-.3.4-.3.3H454a3.7 3.7 0 0 1-.5-1.1 4.9 4.9 0 0 1-.1-1.2 3.7 3.7 0 0 1 .1-1.1 2.3 2.3 0 0 1-.6-1.2 5.2 5.2 0 0 0-.2-1.4c-.2-1.1-.5-2.1-.8-3.2a16.5 16.5 0 0 1-.6-3.2v-4.6a2.5 2.5 0 0 1 .1-.8v-.7a2.3 2.3 0 0 0-.3-1.1 20 20 0 0 0-6 1.2 34.6 34.6 0 0 0-5.7 2.4 13.6 13.6 0 0 0-.2 2 12.7 12.7 0 0 0-.1 2v2a11.5 11.5 0 0 0 .1 1.9 2.9 2.9 0 0 0 1.3 1.9 9 9 0 0 0 2.2 1.1 3.6 3.6 0 0 1-.2 1.1 7 7 0 0 1-.6.9l-.7.7-.8.8-.7-.3h-2.4l-1-1.4-1.1-1.3v-.4a6.7 6.7 0 0 0-.4-2.4 9.4 9.4 0 0 1-.7-2.2c.1-.3.1-.6.2-.8v-2.9a4.8 4.8 0 0 1 0-1.7h-.2a1.5 1.5 0 0 0-.9.2l-.9.4-.8.5-.6.2h-1.2l-.6.4-.8.4-.8.2a1.8 1.8 0 0 1-1.3-.6 1.3 1.3 0 0 1-.1-.6 1.7 1.7 0 0 0 .1-.7 3.1 3.1 0 0 0-.2-.8 2.6 2.6 0 0 1 .9-.9l1-.6 1.2-.6a2.5 2.5 0 0 0 1-.8h.2l1.2-.2a2.1 2.1 0 0 1 1.2-.3c.1 0 .2-.3.3-.6h.2a2.3 2.3 0 0 0 1.7-.7c.3-1.8.6-3.7.8-5.6a52.5 52.5 0 0 0 .3-5.6.7.7 0 0 0-.2-.6v-2.3a4.3 4.3 0 0 1 .2-1.1 1.7 1.7 0 0 1 1-.3l1.1.2 1.1.2a2.4 2.4 0 0 1 .6.9l.3 1v2.1a6.2 6.2 0 0 0 .2 1.9 11 11 0 0 1 .2 1.8c0 .2 0 .3-.2.4s-.1.3-.1.6a3.4 3.4 0 0 0 .1 1c0 .4.1.7.1 1.1a6.9 6.9 0 0 1-.2 1.3l-.3 1.3 5.5-.7a30.5 30.5 0 0 0 5.4-1.4v-.8a1.3 1.3 0 0 1-.1-.6 1 1 0 0 1 .4-.9 10.1 10.1 0 0 1-.3-2.5 20.1 20.1 0 0 1-.1-2.5v-2.5a20.1 20.1 0 0 0-.1-2.5 1.3 1.3 0 0 1 .8-.3 1.6 1.6 0 0 1 .9.3l1 .2h.7a3.5 3.5 0 0 1 .7 1.2l.3 1.4.3 1.5a2.3 2.3 0 0 0 .6 1.2v.2a.2.2 0 0 1-.2.2.5.5 0 0 0-.2.4v.2l.3 1.4c0 .6.1 1.1.1 1.6s.1 1 .2 1.5a5.8 5.8 0 0 0 .5 1.4h.6a1.7 1.7 0 0 1 1.4.6 5.1 5.1 0 0 1 .9 1.3m57.7 9.3l.3 1a3.6 3.6 0 0 0 .2 1.1 3.6 3.6 0 0 0 .2 1.1 1.2 1.2 0 0 0 .6.8c0 .2-.1.3-.1.5l-.3.3-.3.3-.2.4a3.7 3.7 0 0 0-.1 1.1c0 .4-.2.6-.6.8v.5a2.8 2.8 0 0 1-.1.9 2.2 2.2 0 0 0-.1.9 7 7 0 0 0-1.3 1.7 10.8 10.8 0 0 0-.8 1.9l-3.4 3.4-3.5 3.2c-1.2 1.1-2.5 2.1-3.7 3a43.7 43.7 0 0 1-4 2.5h-.3a4 4 0 0 0-1.7.3 3.7 3.7 0 0 1-1.4.7 4.4 4.4 0 0 0-1.7-.2h-2.2l-1.4-.2-1.1-.4-1.2-.5-1.2-.3a20.3 20.3 0 0 1-4.4-6.4 18.5 18.5 0 0 1-1.6-7.6 15 15 0 0 1 .5-3.7 12.6 12.6 0 0 0 .5-3.3c.5-1.1 1-2.2 1.4-3.3l1.2-3.5c.4-1.1.9-2.2 1.4-3.3a30.7 30.7 0 0 1 1.7-3.1 5.2 5.2 0 0 1 .8-2l1-1.9a3.5 3.5 0 0 1 .5-1.8 10.5 10.5 0 0 0 .5-1.9 5.8 5.8 0 0 0 1.1-1.5l.9-1.8.9-1.7a4.7 4.7 0 0 1 1.4-1.4 1.5 1.5 0 0 0 .1-.7 1.4 1.4 0 0 1 .2-.6l1-1 .8-1.2a10.5 10.5 0 0 1 .8-1.1l.6-.5.6-.4a.4.4 0 0 0 .1-.5c0-.3 0-.5.2-.6s.1-.1.2-.2l.3-.2a2.7 2.7 0 0 0 1-.8 3.4 3.4 0 0 1 1.2-.6 5.2 5.2 0 0 0 1.1-1l1.1-.8a4.1 4.1 0 0 1 1.1-.7 3.9 3.9 0 0 1 1.6-.2h.7a7.3 7.3 0 0 1 2.3 4.2 5.7 5.7 0 0 0-.8 1.3l-.6 1.4a7.1 7.1 0 0 0-1.5.8l-1.3 1.1-1.3.9a2.9 2.9 0 0 1-1.6.4l-1.1 1-1.7 1.5-1.5 1.4-.8 1-.3.4c0 .1-.1.2-.2.4l-1.1 1.9-2 3.4a22.1 22.1 0 0 0-1.8 3.4 6.4 6.4 0 0 0-.6 1.6l-.5 1.7a1.4 1.4 0 0 1-.2.6c-.1.1-.1.3-.2.5l-.8 1.7a9 9 0 0 0-.4 1.9l-2.1 5a31.8 31.8 0 0 0-1.4 5.3 3.7 3.7 0 0 1 .2 1.8v1.8a9 9 0 0 0 .2 1.8 5.7 5.7 0 0 0 .4 1.4 7.5 7.5 0 0 0 .7 1.2c.2.5.5 1 .7 1.6a4.3 4.3 0 0 1 1.2 1.1 17.1 17.1 0 0 1 1.1 1.4 8.4 8.4 0 0 0 3.4.8 7.8 7.8 0 0 0 2.6-.4l2.5-1 2.4-1.3 2.2-1.4a23.6 23.6 0 0 0 3.3-2.4 34.5 34.5 0 0 0 2.6-2.8l2.1-3 2-3.5.2-.6.3-.6a2.5 2.5 0 0 0 .2-.7 1.1 1.1 0 0 0 0-.9l-.2-.3a.8.8 0 0 1 .2-.5l.4-.3.5-.3a1 1 0 0 0 .2-.7m0 0H515a1 1 0 0 1-.9-.4l-.5.3-.4.4-.4.5h-.9a3.2 3.2 0 0 0-1.4.3l-1.1.5h-.7l-.9.2-.9.3-.9.4h-.9l-1.8.8h-.4l-.8.2a1.8 1.8 0 0 0-.9.6 2.1 2.1 0 0 0-1.1-.4 2.8 2.8 0 0 0-1.3.3l-1.4.2h-.3a10.4 10.4 0 0 1-.4-1 2.3 2.3 0 0 0-.7-.7 2.9 2.9 0 0 1-.2-.9c0-.4-.1-.7-.1-1a4.4 4.4 0 0 1 .7-2.2l1.3-.3 1.3-.4h2c.6 0 4.2-.8 4.2-.8l3.3-.9 3.1-.9a10.7 10.7 0 0 1 3.2-.6c.7-.6 1.3-.5 2.4-.7h.9l4.5-1.5h.4l1.6-.2 1.6-.2h.7l.7-.2.8-.3a4.7 4.7 0 0 0 1.3 1.1l1.2 1.1a5.3 5.3 0 0 1-.3 1.2 5 5 0 0 1-.5 1.3 3.4 3.4 0 0 1-.8.9 1.9 1.9 0 0 1-1.2.4h-2.5l-.5.2h-1.2l-.8.2-.8.2-.4.2-2.5.7-2.5.4"/><path d="M554.4 83.6a2.3 2.3 0 0 1-.6 1.2 3.6 3.6 0 0 1-.9.8l-1.1.6-1.1.7h-.6a3.9 3.9 0 0 1-2.9-1 5.7 5.7 0 0 1-1.5-2.2 13.2 13.2 0 0 1-.8-3c-.2-1-.4-2-.6-2.8a2.8 2.8 0 0 0-.9 1l-.7 1.2-.9 1.1a2.3 2.3 0 0 1-1.2.6l-.3.7a1.4 1.4 0 0 0-.2.6 8.3 8.3 0 0 0-1.8 1.3l-1.6 1.5-1.7 1.4a5.7 5.7 0 0 1-1.8 1.2h-.2a1.7 1.7 0 0 0-1 .3l-1 .2h-.6l-.6-.3-.6-.3a1.6 1.6 0 0 0-.7 0 4.4 4.4 0 0 0-1.2-1.5 2.9 2.9 0 0 1-.9-1.6c0-.3-.1-.6-.1-.9a2.5 2.5 0 0 0-.1-.8 7.4 7.4 0 0 0-.4-1.4l-.3-1.4c.1-.8.3-1.7.4-2.7s.3-1.9.5-2.9a22.9 22.9 0 0 1 .8-2.8 8 8 0 0 1 1.3-2.2v-.3a5.9 5.9 0 0 1 .2-1.4l.6-1.2.6-1.2a5.3 5.3 0 0 0 .1-1.3l1.1-.4 1.2-.2 1.1.2c-.1.2 0 .4.3.4v.2a11 11 0 0 1-.2 1.8l-.6 1.8-.6 1.7a11.6 11.6 0 0 0-.4 1.8l-.3.2c0 .1 0 .2-.1.2a.4.4 0 0 1-.1.3h-.3c-.2 1-.3 2-.5 3.1a15.5 15.5 0 0 0-.3 3.1 6.2 6.2 0 0 0 .2 1.9 6 6 0 0 0 .6 1.9h.2a1.1 1.1 0 0 1 .8.2 2.9 2.9 0 0 0 .8.4l.6-.2c.3-.1.3-.3.3-.6a1.7 1.7 0 0 0 1-.3 1.8 1.8 0 0 0 .7-.5l.7-.7a2 2 0 0 1 .8-.4.5.5 0 0 1 .2-.4l.2-.3c.1-.1.2-.2.2-.3s.1-.2.1-.4l.8-.3.5-.5.5-.6a3.4 3.4 0 0 1 .6-.6l.9-1.8 1.1-2.3c.4-.8.7-1.6 1-2.3a7.9 7.9 0 0 0 .4-1.7.6.6 0 0 0-.1-.4c-.1-.1-.1-.2-.1-.4a3.6 3.6 0 0 0 .7-1l.6-1a3.5 3.5 0 0 1 .7-.9 3 3 0 0 1 1.1-.7l1.4.4a3.2 3.2 0 0 1 1.4.3c.1.8.1 1.6.3 2.6a8.3 8.3 0 0 0 .6 2.5v1.1a4.5 4.5 0 0 0-.1 1.1c0 .6.1 1.2.1 1.9a4.7 4.7 0 0 0 .3 1.7 3.2 3.2 0 0 0-.3 1.4 6.4 6.4 0 0 0 .3 2 5.8 5.8 0 0 1 .4 1.9 1.7 1.7 0 0 0 1.6.8h.7l.6.7a4.6 4.6 0 0 0 .7.7m38.8-26.6a6 6 0 0 1-.6 1.1l-.8.9-.6 1a2.3 2.3 0 0 0-.1 1.2h-.5a1.4 1.4 0 0 0-1.1.4l-1 .5-.2-.5c-.1-.2-.2-.3-.4-.3l-2.2.3-2.1.3-1 .2-1 .3h-1.2l-2.4.2a4.1 4.1 0 0 0-2.2.7l-1-.2h-.9l-2.4.2a5.7 5.7 0 0 0-2.3.8l-.4-.2h-.9a1.9 1.9 0 0 0 .1.8c.2.3.3.5.6.6a4.3 4.3 0 0 0-.2 1.1c0 .5.1 1 .1 1.5a7.8 7.8 0 0 1 .2 1.6 2.5 2.5 0 0 1-.3 1.3 9.3 9.3 0 0 1 .5 2.9 3.4 3.4 0 0 1-.1 1c0 .4-.1.7-.1 1.1a1.2 1.2 0 0 0 .4.8 1.2 1.2 0 0 1 .4.8v.3l1.2-.3a2.7 2.7 0 0 1 1.2-.3l.7.2c.2 0 .4.2.6.3s-.1.3-.1.5v1.5c0 .2.1.6.1.9a4.4 4.4 0 0 1-.8 1.1 1.9 1.9 0 0 0-.7 1.3l-1.2.2-.9.7-.9.6a1.9 1.9 0 0 1-1 .3l-1-.2-.4-.4c-.1-.2-.1-.3-.2-.4s-.2-.2-.5-.2a4.5 4.5 0 0 0-.3-1.1l-.6-1-.6-1a4.2 4.2 0 0 1-.4-1 6.9 6.9 0 0 1-.2-2.5 6.7 6.7 0 0 0-.4-2.4c0-.4.1-.8.1-1.3v-3.7a21.7 21.7 0 0 1-.1-2.6 1.3 1.3 0 0 1-.4-.9 3.4 3.4 0 0 1-.1-1l-.3-.3c-.1 0-.2-.2-.2-.3h-.6a1.7 1.7 0 0 0-1 .3l-.8.3H558a.2.2 0 0 1-.2.2l-.6.2-1.1.2h-1.9a1.6 1.6 0 0 1-1.1-.3l-.9-.6c0-.2.1-.3.1-.4a.9.9 0 0 0-.3-.7.9.9 0 0 1-.3-.5.8.8 0 0 1 .4-.8 1.3 1.3 0 0 0 .4-.9 8.3 8.3 0 0 1 2.1-.6l2.2-.4 2.2-.3a7.9 7.9 0 0 0 2.2-.6h1.2a12.4 12.4 0 0 0 2.7-.3 12.4 12.4 0 0 1 2.7-.3h1.4l3.6-.6 3.7-.5 1.7-.2 1.8-.2h.5a.7.7 0 0 0 .1-.5l.9.2a4 4 0 0 0 1.5-.3 4 4 0 0 1 1.5-.3h.6a.3.3 0 0 0 .3-.3c0-.2.2-.3.4-.4h2.1l1.3-.2.8-.4.3-.4a1.4 1.4 0 0 1 1.2.6 4.2 4.2 0 0 1 .4 1.5h1.3z"/><path d="M639.3 80.3a1.9 1.9 0 0 1-.7 1.2 3.5 3.5 0 0 1-1.2.7l-1.4.3h-1.3a4.1 4.1 0 0 0-1.1.7l-1.1.7-7.8 1.2-7.8 1.3a2.5 2.5 0 0 1-1.3.4l-1.8.2-1.8.2a4.4 4.4 0 0 0-1.6.6 21.3 21.3 0 0 0-5.6 1l-1.1-.2h-1.8a1.2 1.2 0 0 0-.7.5 3.2 3.2 0 0 0-2.5-.7 8 8 0 0 1-2.2-1.3 5.2 5.2 0 0 1-1.4-2.1v-1.1c0-.2-.2-.5-.6-.8a.8.8 0 0 1 .2-.5.8.8 0 0 0 .2-.5 1.9 1.9 0 0 1-.1-.8 7.7 7.7 0 0 1 .2-1.5 2.6 2.6 0 0 0 .1-1.5 9.5 9.5 0 0 1 1.5-2l1.6-1.8 1.6-1.8 1.6-1.8a3.8 3.8 0 0 0 1.5-.9 5.3 5.3 0 0 0 1.4-1.2l1.3-1.2a5.1 5.1 0 0 1 1.6-.9c0-.2.1-.3.3-.5l.4-.4c.1-.1.3-.2.4-.4s.2-.3.3-.5h-.4l-4 .2-4 .6-4 .7a25.7 25.7 0 0 1-4 .6l-1.7.7-1.7.7-1.7.7a4 4 0 0 0-1.5 1h-.4l-.8-.2-.8-.3-.3-1.4a2.7 2.7 0 0 1-.2-1.3 3.1 3.1 0 0 1 .1-1c.5 0 .8-.1.9-.4a1.9 1.9 0 0 1 .8-.7c0 .1.1.1.2.1l.4-.2.5-.3.6-.4a2.7 2.7 0 0 1 .9 0 7.3 7.3 0 0 1 2.6-.9l2.6-.4.5-.3.3-.4h.9a17.1 17.1 0 0 0 3.9-.3l3.8-.7 3.9-.7a17 17 0 0 1 3.9-.1 1.9 1.9 0 0 1 1-.3h2.6l1.6.5a2.9 2.9 0 0 1 1.2 1 2 2 0 0 1 .5 1.5 2.9 2.9 0 0 1-.2.9c-.2.2-.3.5-.6.7l-.6.7-.7.7-.9 1.1a5.2 5.2 0 0 1-1 1.1h-.5c-.1.2-.3.2-.5.2a1 1 0 0 0-.6 1 13.4 13.4 0 0 0-2.4 1.2 5.2 5.2 0 0 0-1.8 1.8l-1.8 1.3c-.5.5-1.1 1-1.6 1.6l-1.5 1.6-1.5 1.6-.3 1.3c-.2.3-.3.8-.5 1.2a1.1 1.1 0 0 0 .3.8 1.7 1.7 0 0 1 .3 1l2.2.3h4.5a10.3 10.3 0 0 0 2.1-.7l1.4.2 1.9-.2a6.2 6.2 0 0 1 1.9-.2l2.3-.5 2.4-.3 2.3-.3a6.2 6.2 0 0 0 2.3-.7h2.3l1.1.3 1.5-.7a4.4 4.4 0 0 1 1.6-.2h.6l.6.2.5-.2.7-.3.8-.2h.4c.3 0 .4 0 .4.2s0 .2.2.2a4 4 0 0 0 1.5-.3 3.2 3.2 0 0 1 1.4-.3h.6l.6.2.4.5c.1.2.2.4.4.4"/></g><path fill="#010101" d="M138.3 28.5l51.5 92c1.1 1.9 1.1 1.9-1.1 1.9-9.5 0-19-.1-28.5 0-1.5 0-1.9-.4-1.8-1.9.1-3.1 0-3.1 3.2-3.1h20.7C167.6 91.1 153 65 138.2 38.8l-21.4 37.9c-7.1-12.7-14.1-25.2-21.3-37.9L74.1 76.7 52.8 38.8C38 65 23.3 91 8.5 117.4h22.8c.9 0 1.3.2 1.3 1.3.1 3.8.2 3.8-3.6 3.8H.2a3.2 3.2 0 0 1 .7-2l51-90.5.6-1.4h.4c1.6 1.2 2.2 3.1 3.1 4.8L73.4 64a1.5 1.5 0 0 0 .7 1 87.7 87.7 0 0 0 4.9-8.4c4.9-8.7 9.8-17.3 14.6-26a6.1 6.1 0 0 1 1.8-2.1h.4c2.3 3 3.9 6.5 5.8 9.8L115 62.2a20.2 20.2 0 0 1 1.8 3.6s14-25.3 19.3-34.7a9.3 9.3 0 0 1 1.8-2.6z"/><path fill="#010101" d="M139.5 116.9c-5.6-9.8-11-19.4-16.4-29.1-1.6-2.8-3.1-5.6-4.7-8.3a2.1 2.1 0 0 1-.1-2.5l19.9-35.4c13.9 24.8 27.7 49.3 41.6 74.2h-18.7c-2.7 0-2.6 0-2.7-2.7s.3-2.5 2.3-2.4 6.7.1 10.3.1l-32.8-58.5c-2.5 4.3-4.8 8.3-7 12.4s-4.5 8.1-6.9 12.1a2.7 2.7 0 0 0 0 3q11.7 20.4 23.2 41.1l.7 1.3H42.9c-.2-.7.5-1.2.8-1.8l22.8-40.6c.4-.7 1.1-1.3.5-2.3-4.7-8.3-9.4-16.7-14.3-25.2l-33 58.5h10.2c.8 0 2.2-.5 2.5.3a12.4 12.4 0 0 1 .1 4.3c0 .6-.7.4-1.1.4H11C25 91 38.8 66.4 52.8 41.7q2.4 4.3 4.8 8.4l14.9 26.5a2.9 2.9 0 0 1 0 3.1L52.6 115l-1 1.9z"/><path fill="#231f20" d="M115.4 76.9L95.5 41.8l-.5.8c-6.5 11.5-13 23-19.6 34.5a2.1 2.1 0 0 0 .3 2.3c6.3 11.3 12.6 22.6 19 33.8.2.4.3 1 1 1.1l19.6-34.9a2.1 2.1 0 0 0 .1-2.5zm-6.6 3.7c-4.5 7.8-8.8 15.6-13.4 23.7l-7.9-14.2-6.1-10.7a2 2 0 0 1-.2-2c4.7-8.1 9.3-16.3 13.9-24.5l.5-.4c4.4 7.8 8.7 15.7 13.2 23.4a3.9 3.9 0 0 1 0 4.7zm8-1l-20.2 36h40.5zm0 10.6c3.9 6.8 7.6 13.5 11.5 20.4h-23zM74.1 79.6C67.5 91.5 61 103 54.5 114.5c-1 1.8.5 1.2 1.1 1.2h37.5c.4 0 .8.2 1.1-.4-6.6-11.8-13.2-23.6-20.1-35.7zm-11.5 31c3.9-6.8 7.6-13.5 11.5-20.4 3.9 6.9 7.6 13.6 11.5 20.4z"/></svg>