<svg xmlns="http://www.w3.org/2000/svg" width="16" height="16" viewBox="0 0 16 16"><path fill="#010101" d="M11.7 4l4.4 7.9c.1.1.1.1-.1.1h-2.6c0-.3 0-.3.3-.3h1.8l-3.8-6.8-1.9 3.2L8 4.9 6.2 8.1 4.4 4.9.6 11.6h2c0 .3 0 .3-.3.3H-.1l4.4-7.8h.1c.1.1.1.2.2.4L6.1 7h.1l.4-.7a15.9 15.9 0 0 1 1.3-2.1c0-.1 0-.2.1-.2a2.2 2.2 0 0 1 .5.8l1.2 2.1c0 .1.1.2.1.3l1.7-3a.3.3 0 0 1 .1-.2z"/><path fill="#010101" d="M11.8 11.6l-1.4-2.5a3 3 0 0 1-.4-.8c-.1 0-.1-.1 0-.2s1.1-2 1.7-3l3.5 6.4h-1.6c-.2 0-.2 0-.2-.3s0-.2.2-.2h.9l-2.8-5-.6 1.1-.6 1a.2.2 0 0 0 0 .3l2 3.5H3.6l1.9-3.5c.1-.1.1-.1.1-.2A25.3 25.3 0 0 0 4.3 6l-2.8 5h1.1v.3H.8l3.6-6.2a1.6 1.6 0 0 0 .4.7L6 8.1a.2.2 0 0 1 0 .3c-.5 1-1.1 2-1.7 3v.2z"/><path fill="#231f20" d="M9.7 8.1c-.5-1-1.1-2-1.7-3-.6 1-1.1 2-1.7 2.9a.1.1 0 0 0 0 .2l1.6 2.9H8c.6-1 1.2-2 1.7-3s.1.1 0 0zm-.5.3L8 10.5l-.7-1.2a3.1 3.1 0 0 0-.5-1L8 6.1 9.2 8zm.6 0c-.5 1-1.1 2-1.7 3h3.5zm0 .9l1 1.7H8.9zm-3.6-.9c-.6 1-1.1 2-1.7 2.9s0 .1.1.1h3.3zm-1 2.6l1-1.7 1 1.7z"/></svg>