<svg xmlns="http://www.w3.org/2000/svg" width="36" height="36" viewBox="0 0 36 36"><path fill="#010101" d="M26.1 9.1l9.8 17.4c.2.4.2.4-.2.4h-5.4c-.3 0-.4-.1-.4-.4s0-.6.6-.6h3.9l-8.3-14.8-4 7.1-4.1-7.1-4 7.1-4.1-7.1-8.3 14.8h4.3c.2 0 .2.1.2.3s.1.7-.6.7H0c0-.2.1-.3.1-.4 3.3-5.7 6.5-11.4 9.7-17.1v-.3h.2a4.7 4.7 0 0 1 .6.9l3.2 5.8.2.2.9-1.6c.9-1.6 1.9-3.2 2.8-4.9l.3-.4h.1l1.1 1.9 2.5 4.5a1.6 1.6 0 0 1 .4.7l3.6-6.6.3-.5z"/><path fill="#010101" d="M26.3 25.8l-3.1-5.5-.8-1.5c-.1-.2-.2-.3-.1-.5l3.8-6.7 7.9 14h-3.6c-.5 0-.5 0-.5-.5s.1-.5.5-.4h1.9l-6.2-11.1c-.5.8-.9 1.6-1.3 2.4a25.3 25.3 0 0 0-1.3 2.2.6.6 0 0 0 0 .6c1.4 2.6 2.9 5.2 4.4 7.8v.2H8.1c0-.1.1-.2.1-.3l4.4-7.7c0-.1.1-.2 0-.4s-1.7-3.2-2.7-4.8L3.7 24.7h2.4a2.1 2.1 0 0 1 0 .8c0 .2-.1.1-.2.1H2l7.9-14 1 1.6 2.8 5a.6.6 0 0 1 0 .6l-3.8 6.7c0 .1-.1.2-.2.3z"/><path fill="#231f20" d="M21.8 18.3L18 11.6v.2l-3.7 6.5c-.1.2 0 .3.1.5l3.6 6.3c0 .1 0 .2.2.2 1.2-2.2 2.4-4.4 3.7-6.6a.3.3 0 0 0-.1-.4zm-1.2.7c-.9 1.4-1.7 2.9-2.6 4.5q-.7-1.5-1.5-2.7l-1.1-2.1c-.1-.1-.2-.2-.1-.3s1.8-3.1 2.6-4.7h.1c.9 1.4 1.7 2.9 2.6 4.4a1.4 1.4 0 0 1 0 .9zm1.5-.2l-3.9 6.8h7.7zm0 2l2.1 3.8h-4.3zm-8.1-2c-1.3 2.2-2.5 4.4-3.7 6.6-.2.3.1.2.2.2h7.3zm-2.2 5.8l2.2-3.8c.7 1.3 1.4 2.6 2.2 3.8z"/></svg>