<svg xmlns="http://www.w3.org/2000/svg" width="200" height="200" viewBox="0 0 200 200"><g id="Layer_1" data-name="Layer 1"><path d="M100.5,4.9a95.3,95.3,0,1,0,95.2,95.3A95.4,95.4,0,0,0,100.5,4.9Zm0,175.5a80.3,80.3,0,1,1,80.2-80.2A80.3,80.3,0,0,1,100.5,180.4Z" fill="#523c65"/><path d="M104.8,152.7l-1.7-1.4-1.1-.9-1.5-1.7a4.8,4.8,0,0,0-4.1-2.1l-1.7.2-2,.4v2c0,.1-.1.2,0,.2l-1.3,1.1a8,8,0,0,0-2.2,2.3,7.4,7.4,0,0,0-1.2,4.4,9.8,9.8,0,0,0,1.7,5.6,8.4,8.4,0,0,0,4.7,3.6l.6.2h.6a5.2,5.2,0,0,0,3.8-2.5l.8-1,1.8-.4,3.1-.9,1.1-.4.4-1a7.4,7.4,0,0,0,.4-1.4,5.9,5.9,0,0,0,.2-1.4,5.5,5.5,0,0,0-1-3.1A20.9,20.9,0,0,0,104.8,152.7Z" fill="#523c65"/><path d="M113.2,50.9a23.2,23.2,0,0,0,.4-4.6,16,16,0,0,0-.5-3.9l-.2-.7-.5-.4L109.1,38a8.4,8.4,0,0,0-5.9-2.4,8.1,8.1,0,0,0-3.1.6l-2.1,1-1.4.7v1.7a6.7,6.7,0,0,1-.4,2.4,10.6,10.6,0,0,0-.8,4.3v.9a7.6,7.6,0,0,0,.1,1.5l.2.6.4.5a4.1,4.1,0,0,1,1.1,3,16,16,0,0,1-.5,3.9,22.4,22.4,0,0,0-.6,5.2V63h0a17.4,17.4,0,0,0-.5,2.2L95.1,67l-.3.6v.6c0,1,0,2.2-.1,3.4a4,4,0,0,1-.8,2.1l-.9,1.1.5,1.3a2.9,2.9,0,0,1,.2.9,6.5,6.5,0,0,1-.4,2,16.3,16.3,0,0,0-.7,3,19.9,19.9,0,0,0-2.1,4.7C90,88.3,89.5,90,89,91.8s-.9,3.3-1.4,5a15.7,15.7,0,0,1-1.8,4.2l-.3.6v.8a4.1,4.1,0,0,1-.2,1.9,10.5,10.5,0,0,0-.6,3.6c0,.2.1.5.1.7a17.8,17.8,0,0,0-1,2.3,9.9,9.9,0,0,0-.6,3.9,19,19,0,0,0,.9,5.8,16.2,16.2,0,0,1,.7,4.4v1.5l1.3.7a1.3,1.3,0,0,1,.8.7,4.9,4.9,0,0,0,3.8,1.9,6.2,6.2,0,0,0,3.3-.8l.9-.2.6.2,2,.7,1-2a1,1,0,0,1,.5-.6l1.8-1.3a7.3,7.3,0,0,0,1.9-2,6.6,6.6,0,0,0,1.1-3.8v-1.9l-.8-.8a6.2,6.2,0,0,0-1.7-1.1l-1.3-.7-.5-.3a27.3,27.3,0,0,1,.5-5c.4-2,.9-4,1.4-5.9s1.3-3.9,2-5.9,1.3-4.1,2-6.1.6-2.2,1-3.3.6-2.3,1-3.4h0c.1-.6.3-1.3.4-1.9a10.6,10.6,0,0,1,.3-1.4,5,5,0,0,1,.4-1.3c.2-.5.3-1,.5-1.6a50.5,50.5,0,0,0,1.2-5.6,77.6,77.6,0,0,0,1.3-8.2,66.3,66.3,0,0,1,1.5-7.5l.2-.7-.3-.7V54.8C113,53.5,113.1,52.3,113.2,50.9Z" fill="#523c65"/></g></svg>